<svg xmlns="http://www.w3.org/2000/svg" width="75.821" height="75.821" viewBox="0 0 75.821 75.821"><defs><style>.a{fill:#eee9dc;}</style></defs><path class="a" d="M35.152,16.02a15.559,15.559,0,0,1,3.671,1.523,5.2,5.2,0,0,0-2.632-4.015,5.18,5.18,0,0,1-1.039,2.492Z" transform="translate(6.879 0.235)"/><path class="a" d="M33.058,3a5.212,5.212,0,0,0-4.5,2.615h9A5.208,5.208,0,0,0,33.058,3Z" transform="translate(4.852 -3)"/><path class="a" d="M18.2,21.944A9.2,9.2,0,0,1,21.529,23.9c.082-.224.154-.454.247-.672a5.183,5.183,0,0,0-2.6-3.718A5.18,5.18,0,0,1,18.2,21.944Z" transform="translate(1.671 2.074)"/><path class="a" d="M46.819,22.164a5.173,5.173,0,0,1-1.157-2.648,5.184,5.184,0,0,0-2.6,3.717c.149.353.275.718.4,1.082a10.187,10.187,0,0,1,3.357-2.15Z" transform="translate(9.31 2.075)"/><path class="a" d="M50.229,18.229A5.234,5.234,0,0,0,55.458,13H45A5.234,5.234,0,0,0,50.229,18.229Z" transform="translate(9.905 0.073)"/><path class="a" d="M50.058,9a5.212,5.212,0,0,0-4.5,2.615h9A5.208,5.208,0,0,0,50.058,9Z" transform="translate(10.076 -1.156)"/><path class="a" d="M32.615,15.615A2.617,2.617,0,0,0,35.229,13H30A2.617,2.617,0,0,0,32.615,15.615Z" transform="translate(5.296 0.073)"/><path class="a" d="M34.118,39.8a7.579,7.579,0,0,0,7.569-7.57V27.8l-.864-.173a12.584,12.584,0,0,1-6.979-3.992,12.591,12.591,0,0,1-6.979,3.992L26,27.8v4.154A7.876,7.876,0,0,0,33.888,39.8ZM28.89,34.123l-.137-.275,2.339-1.17.137.276a2.923,2.923,0,0,0,5.229,0l.137-.276,2.339,1.17-.137.276a5.538,5.538,0,0,1-9.906,0Z" transform="translate(4.067 3.34)"/><path class="a" d="M29.437,45.943H37.73l2.59-4.809a5.173,5.173,0,0,1-3.83-3.391,10.169,10.169,0,0,1-2.632.357h-.23a10.541,10.541,0,0,1-2.932-.422,5.171,5.171,0,0,1-3.849,3.456Z" transform="translate(4.327 7.655)"/><path class="a" d="M28.671,13.527a5.2,5.2,0,0,0-2.632,4.016,15.591,15.591,0,0,1,3.671-1.523,5.18,5.18,0,0,1-1.039-2.493Z" transform="translate(4.079 0.234)"/><path class="a" d="M27.626,44.979a2.594,2.594,0,0,0,2.145-2,10.447,10.447,0,0,1-5.157-8.987v-6.3L27.58,27.1a9.984,9.984,0,0,0,6.185-3.992V19.615h2.615v3.493A9.991,9.991,0,0,0,42.564,27.1l2.966.593v6.574a10.184,10.184,0,0,1-5.124,8.827,2.592,2.592,0,0,0,2.114,1.885l2.584.4a14.57,14.57,0,0,1,3.042.824V30.073a13.073,13.073,0,1,0-26.145,0V46.2a14.57,14.57,0,0,1,3.042-.824Z" transform="translate(2.838 1.302)"/><path class="a" d="M33.229,12.229A5.234,5.234,0,0,0,38.458,7H28A5.234,5.234,0,0,0,33.229,12.229Z" transform="translate(4.681 -1.771)"/><path class="a" d="M52.454,48.137l1.217-2.26-.932-.467-.659,1.978Z" transform="translate(12.08 10.031)"/><path class="a" d="M56.043,42.554l-2.458-.492-1.6,1.064,2.95,1.476Z" transform="translate(12.052 9.002)"/><path class="a" d="M60.57,33.285a8.714,8.714,0,0,0,.448-2.766A7.528,7.528,0,0,0,53.5,23H50.237a7.529,7.529,0,0,0-6.317,3.469,15.939,15.939,0,0,1,.1,1.76v6.7a6.525,6.525,0,0,1,4.238-6.119,5.788,5.788,0,0,1-.316-1.886h2.615A3.231,3.231,0,0,0,53.32,30.1l3.024.433a3.938,3.938,0,0,1,3.367,3.88v.688a8.739,8.739,0,0,0,.859-1.82Z" transform="translate(9.573 3.145)"/><path class="a" d="M52.741,39.761a7.693,7.693,0,0,1-4.34,0l-.26,1.042,2.43,1.621L53,40.8Z" transform="translate(10.87 8.295)"/><path class="a" d="M55.917,14.591a3.905,3.905,0,1,0-3.944-6.552,7.837,7.837,0,0,1,3.944,6.552Z" transform="translate(12.047 -1.771)"/><path class="a" d="M53.117,19.527a5.17,5.17,0,0,1-.724,2.048A10.081,10.081,0,0,1,55.567,22.6,5.226,5.226,0,0,0,53.117,19.527Z" transform="translate(12.176 2.078)"/><path class="a" d="M52.229,19H47a2.615,2.615,0,1,0,5.229,0Z" transform="translate(10.519 1.916)"/><path class="a" d="M48.049,45.394q.257.58.463,1.184h2.452l.651-1.952L50.6,44.118Z" transform="translate(10.841 9.634)"/><path class="a" d="M56.458,35.478V32.515a1.314,1.314,0,0,0-1.122-1.294l-3.024-.433a5.808,5.808,0,0,1-3.233-1.6l-.107.027A3.918,3.918,0,0,0,46,33.024v2.454a5.229,5.229,0,1,0,10.458,0Z" transform="translate(10.212 5.047)"/><path class="a" d="M48.58,43.126l-1.6-1.064-.824.165a14.036,14.036,0,0,1,1.2,1.512Z" transform="translate(10.261 9.002)"/><path class="a" d="M6.076,43.988A7.718,7.718,0,0,0,3,50.136v16.42H5.615V52.177H8.229v14.38h7.844v-8.82L8.092,42.915a7.681,7.681,0,0,0-2.016,1.073Z" transform="translate(-3 9.264)"/><path class="a" d="M26.977,40.69A11.7,11.7,0,0,0,17,52.318V56.79h5.3q-.073-.761-.073-1.531a16.044,16.044,0,0,1,.822-5.072l.553-1.654,2.479.827-.552,1.654a13.433,13.433,0,0,0,.273,9.232l1.654,4.136v2.866H35.3V55.812L27.144,40.664Z" transform="translate(1.302 8.572)"/><path class="a" d="M22.173,55H19v7.844h5.229V60.48l-1.467-3.668A15.829,15.829,0,0,1,22.173,55Z" transform="translate(1.916 12.977)"/><path class="a" d="M15.271,53.868l-.271.5v8.821h2.615V55.348A2.609,2.609,0,0,1,15.271,53.868Z" transform="translate(0.687 12.629)"/><path class="a" d="M29.9,46l2.739,5.087L35.382,46Z" transform="translate(5.267 10.212)"/><path class="a" d="M15.678,50.064A14.528,14.528,0,0,1,15.837,48H13.872l-1.078,2.157,1.577,2.928,1.307-2.428Z" transform="translate(0.009 10.826)"/><path class="a" d="M61,43.988a7.709,7.709,0,0,0-2.017-1.073L51,57.737v8.82h7.844V52.177h2.615v14.38h2.615V50.136A7.721,7.721,0,0,0,61,43.988Z" transform="translate(11.748 9.264)"/><path class="a" d="M50.844,48H48.879a14.722,14.722,0,0,1,.158,2.064v.593l1.307,2.428,1.577-2.93Z" transform="translate(11.097 10.826)"/><path class="a" d="M42.769,51.014l-.55-1.652,2.479-.827.552,1.654a16.016,16.016,0,0,1,.824,5.073q0,.771-.072,1.531h5.3V52.319A11.7,11.7,0,0,0,41.325,40.69l-.167-.026L33,55.814V67.248h7.844V64.383L42.5,60.248a13.43,13.43,0,0,0,.272-9.234Z" transform="translate(6.218 8.572)"/><path class="a" d="M47,55.348v7.844h2.615V54.37l-.271-.5A2.609,2.609,0,0,1,47,55.348Z" transform="translate(10.519 12.629)"/><path class="a" d="M42.467,56.813,41,60.48v2.364h5.229V55H43.056a15.85,15.85,0,0,1-.59,1.813Z" transform="translate(8.676 12.977)"/><path class="a" d="M11.92,48.137l.374-.749-.659-1.978-.932.467Z" transform="translate(-0.633 10.031)"/><path class="a" d="M18.409,42.227l-.824-.165-1.6,1.064,1.224.612a14.2,14.2,0,0,1,1.2-1.511Z" transform="translate(0.991 9.002)"/><path class="a" d="M11.516,19.512a5.256,5.256,0,0,0-1.973,1.945h2.632A5.148,5.148,0,0,1,11.516,19.512Z" transform="translate(-0.99 2.073)"/><path class="a" d="M16.326,46.578q.206-.606.463-1.184l-2.55-1.276-1.016.509.651,1.952Z" transform="translate(0.141 9.634)"/><path class="a" d="M15.615,21.615A2.617,2.617,0,0,0,18.229,19H13A2.617,2.617,0,0,0,15.615,21.615Z" transform="translate(0.073 1.916)"/><path class="a" d="M16.229,18.229A5.234,5.234,0,0,0,21.458,13H11A5.234,5.234,0,0,0,16.229,18.229Z" transform="translate(-0.542 0.073)"/><path class="a" d="M8.307,35.105v-.688a3.939,3.939,0,0,1,3.366-3.881L14.7,30.1a3.229,3.229,0,0,0,2.761-3.182h2.615a5.774,5.774,0,0,1-.316,1.885,6.527,6.527,0,0,1,4.238,6.119v-6.7a15.8,15.8,0,0,1,.191-2.322A6.558,6.558,0,0,0,18.765,23H8.307A1.309,1.309,0,0,0,7,24.307v6.212a8.64,8.64,0,0,0,1.307,4.586Z" transform="translate(-1.771 3.145)"/><path class="a" d="M11.368,42.062l-2.458.492,1.1,2.048,2.95-1.476Z" transform="translate(-1.184 9.002)"/><path class="a" d="M17,40.8l-.26-1.042a7.708,7.708,0,0,1-4.34,0l-.26,1.042,2.43,1.621Z" transform="translate(-0.191 8.295)"/><path class="a" d="M16.058,9a5.212,5.212,0,0,0-4.5,2.615h9A5.208,5.208,0,0,0,16.058,9Z" transform="translate(-0.371 -1.156)"/><path class="a" d="M20.458,35.477V33.024a3.916,3.916,0,0,0-2.97-3.8l-.109-.027a5.8,5.8,0,0,1-3.233,1.6l-3.024.433A1.312,1.312,0,0,0,10,32.515v2.962a5.229,5.229,0,0,0,10.458,0Z" transform="translate(-0.849 5.048)"/></svg>