<?xml version="1.0" encoding="utf-8"?>
<!-- Generator: Adobe Illustrator 23.0.3, SVG Export Plug-In . SVG Version: 6.00 Build 0)  -->
<svg version="1.1" id="Layer_1" xmlns="http://www.w3.org/2000/svg" xmlns:xlink="http://www.w3.org/1999/xlink" x="0px" y="0px"
	 viewBox="0 0 80 80" style="enable-background:new 0 0 80 80;" xml:space="preserve">
<style type="text/css">
	.st0{fill:#36523F;}
	.st1{fill:none;}
	.st2{fill:#FFE152;}
	.st3{fill:#2BA1CF;}
	.st4{fill:#66BAED;}
	.st5{fill:#F2F0EC;}
	.st6{fill:#D8D5D0;}
	.st7{fill:#CC7A3B;}
	.st8{fill:#A35418;}
	.st9{fill:#EAB599;}
	.st10{fill:#F6CAAE;}
	.st11{fill:#3D4159;}
	.st12{fill:#FFFFFF;}
	.st13{fill:#BFD5DE;}
	.st14{fill:#DDE8ED;}
	.st15{fill:#D3A489;}
	.st16{fill:#F74F4F;}
	.st17{fill:#BF8E75;}
	.st18{fill:#2A2F4F;}
	.st19{fill:#3FB777;}
	.st20{fill:#DD3033;}
</style>
<g>
	<g>
		<g>
			<path class="st0" d="M42.1,69.1c-5.4,0-10.7-1.5-15.3-4.3c-0.3-0.2-0.3-0.5-0.2-0.7c0.2-0.3,0.5-0.3,0.7-0.2
				c4.4,2.7,9.5,4.2,14.7,4.2c15.4,0,28-12.6,28-28c0-15.4-12.6-28-28-28c-5.2,0-10.3,1.4-14.7,4.2c-0.3,0.2-0.6,0.1-0.7-0.2
				c-0.2-0.3-0.1-0.6,0.2-0.7c4.6-2.8,9.9-4.3,15.3-4.3c16,0,29.1,13,29.1,29.1S58.2,69.1,42.1,69.1z"/>
		</g>
	</g>
	<g>
		<circle class="st1" cx="49.3" cy="39.4" r="29.1"/>
		<path class="st0" d="M22.1,55.8c0.3-0.2,0.7-0.4,1-0.5c0.4-0.1,0.7-0.1,1.1,0c0.4,0.1,0.7,0.2,1,0.4c0.3,0.2,0.6,0.5,0.9,0.9
			c0.3,0.4,0.5,0.8,0.6,1.1c0.1,0.4,0.2,0.8,0.1,1.1c0,0.4-0.1,0.7-0.3,1c-0.2,0.3-0.4,0.6-0.8,0.8l-3.5,2.6
			c-0.1-0.1-0.2-0.2-0.3-0.3c-0.1-0.1-0.2-0.3-0.3-0.4c-0.1-0.1-0.2-0.3-0.2-0.4c-0.1-0.1-0.1-0.2-0.1-0.4c0-0.1,0-0.2,0.1-0.3
			c0.1-0.1,0.2-0.2,0.3-0.3l2.8-2.1c0.3-0.2,0.5-0.5,0.5-0.8c0-0.3,0-0.6-0.2-0.8c-0.2-0.3-0.4-0.4-0.7-0.4c-0.3,0-0.6,0.1-0.9,0.3
			L19.8,60c-0.1-0.1-0.2-0.2-0.3-0.3c-0.1-0.1-0.2-0.3-0.3-0.4c-0.1-0.1-0.2-0.3-0.2-0.4c-0.1-0.1-0.1-0.2-0.1-0.4
			c0-0.1,0-0.2,0.1-0.3c0.1-0.1,0.2-0.2,0.3-0.3L22.1,55.8z"/>
		<path class="st0" d="M20.2,49.7c0.5-0.2,1-0.2,1.5,0c0.5,0.3,0.9,0.8,1.2,1.5c0.1,0.3,0.2,0.6,0.3,0.8s0.1,0.5,0.1,0.7
			c0,0.2-0.1,0.4-0.1,0.6c-0.1,0.2-0.2,0.3-0.4,0.4c-0.2,0.1-0.3,0.1-0.5,0.1c-0.1,0-0.3-0.1-0.4-0.1c0-0.3,0-0.5,0-0.8
			c0-0.3-0.1-0.6-0.3-1c-0.1-0.2-0.2-0.4-0.3-0.5c-0.1-0.1-0.2-0.1-0.3-0.1c-0.1,0-0.2,0.1-0.2,0.2c0,0.1,0,0.3,0.1,0.5l0.1,0.3
			c0.2,0.7,0.2,1.2,0,1.6c-0.1,0.4-0.4,0.7-0.9,0.9c-0.3,0.1-0.5,0.2-0.8,0.1s-0.5-0.1-0.7-0.2c-0.2-0.1-0.4-0.3-0.6-0.6
			c-0.2-0.2-0.4-0.5-0.5-0.9c-0.1-0.3-0.2-0.5-0.3-0.7c-0.1-0.2-0.1-0.5-0.1-0.7c0-0.2,0-0.4,0.1-0.5s0.2-0.3,0.4-0.3
			c0.2-0.1,0.3-0.1,0.4-0.1c0.1,0,0.3,0,0.4,0.1c0,0.1,0,0.2,0,0.3s0,0.3,0.1,0.4c0,0.1,0.1,0.3,0.1,0.4s0.1,0.3,0.1,0.4
			c0.1,0.2,0.2,0.4,0.3,0.5c0.1,0.1,0.2,0.1,0.3,0.1c0.1,0,0.1-0.1,0.1-0.2c0-0.1,0-0.2,0-0.5l-0.1-0.4c-0.1-0.7-0.1-1.3,0-1.7
			C19.5,50.2,19.8,49.9,20.2,49.7z"/>
		<path class="st0" d="M16.2,49.6c0-0.1-0.1-0.2-0.1-0.3c-0.1-0.2-0.1-0.3-0.1-0.5c0-0.2-0.1-0.3-0.1-0.4c0-0.1,0-0.3,0.1-0.4
			c0-0.1,0.1-0.2,0.2-0.3c0.1-0.1,0.2-0.1,0.4-0.2l2.4-0.5c0.3-0.1,0.5-0.2,0.6-0.4c0.1-0.2,0.1-0.4,0-0.7c0-0.2-0.1-0.3-0.1-0.4
			c-0.1-0.1-0.1-0.2-0.1-0.2l-3.9,0.9c0-0.1-0.1-0.2-0.1-0.3c-0.1-0.2-0.1-0.3-0.1-0.5c0-0.2-0.1-0.3-0.1-0.4c0-0.1,0-0.3,0.1-0.4
			s0.1-0.2,0.2-0.3c0.1-0.1,0.2-0.1,0.4-0.2l3.4-0.8c0.4-0.1,0.7,0,0.9,0.3c0.2,0.2,0.4,0.5,0.6,0.8c0.2,0.3,0.3,0.7,0.4,1.1
			c0.1,0.4,0.1,0.8,0.1,1.1c0,0.4-0.1,0.7-0.2,1c-0.1,0.3-0.3,0.5-0.6,0.7c-0.3,0.2-0.6,0.3-1,0.4L16.2,49.6z"/>
		<path class="st0" d="M14.5,39.9c0-0.4,0-0.8,0.1-1.1c0.1-0.3,0.2-0.6,0.4-0.9c0.2-0.2,0.4-0.4,0.6-0.6c0.3-0.1,0.6-0.2,0.9-0.2
			l2.5,0c0.2,0,0.4,0.1,0.5,0.2c0.1,0.1,0.2,0.2,0.3,0.4c0.3,0.5,0.5,1.2,0.5,2.1c0,0.4,0,0.8-0.1,1.1s-0.2,0.6-0.3,0.8
			c-0.1,0.2-0.3,0.4-0.6,0.5c-0.2,0.1-0.5,0.2-0.8,0.2c-0.5,0-0.9-0.1-1.2-0.5c-0.3-0.3-0.5-0.8-0.5-1.4L16.6,39l-0.1,0
			c-0.2,0-0.4,0.1-0.5,0.3C16,39.5,16,39.8,16,40.2c0,0.3,0,0.6,0.1,0.8c0.1,0.3,0.1,0.5,0.2,0.7c-0.1,0.1-0.2,0.2-0.3,0.3
			s-0.3,0.1-0.4,0.1c-0.2,0-0.4,0-0.5-0.1c-0.1-0.1-0.2-0.2-0.3-0.4c-0.1-0.2-0.1-0.5-0.2-0.8C14.5,40.5,14.5,40.2,14.5,39.9z
			 M19,39.8c0-0.1,0-0.3,0-0.4c0-0.2-0.1-0.3-0.1-0.3l-0.9,0l0.1,0.8c0,0.2,0.1,0.4,0.1,0.5s0.2,0.2,0.3,0.2c0.2,0,0.3-0.1,0.4-0.2
			S19,40.1,19,39.8z"/>
		<path class="st0" d="M20.6,34.3c0,0.1,0,0.2,0,0.4c0,0.2,0,0.3-0.1,0.5c0,0.2-0.1,0.3-0.1,0.4c0,0.1-0.1,0.2-0.2,0.3
			C20.2,36,20.1,36,20,36c-0.1,0-0.3,0-0.5,0l-3.4-0.6c-0.2,0-0.3-0.1-0.4-0.2s-0.2-0.2-0.3-0.3c-0.1-0.1-0.1-0.3-0.2-0.5
			c0-0.2-0.1-0.4-0.1-0.6s0-0.4,0-0.7c0-0.2,0-0.4,0.1-0.7c0.1-0.4,0.2-0.6,0.4-0.8c0.2-0.2,0.4-0.3,0.7-0.2c0.1,0,0.2,0.1,0.3,0.1
			c0.1,0,0.2,0.1,0.3,0.2c0,0.2,0,0.3-0.1,0.5c0,0.2,0,0.3,0,0.5c0,0.2,0,0.3,0,0.5c0,0.1,0,0.3,0.1,0.4L20.6,34.3z"/>
		<path class="st0" d="M14.5,29.7c-0.3-0.1-0.5-0.3-0.6-0.5c-0.1-0.2-0.1-0.5-0.1-0.8c0.1-0.3,0.3-0.5,0.5-0.6
			c0.2-0.1,0.5-0.1,0.8-0.1c0.3,0.1,0.5,0.3,0.6,0.5c0.1,0.2,0.1,0.5,0.1,0.8s-0.3,0.5-0.5,0.6C15,29.8,14.7,29.8,14.5,29.7z
			 M21.8,29.9c0,0.1,0,0.2,0,0.4c0,0.2-0.1,0.3-0.1,0.5c-0.1,0.2-0.1,0.3-0.2,0.4c-0.1,0.1-0.1,0.2-0.2,0.3
			c-0.1,0.1-0.2,0.1-0.3,0.1c-0.1,0-0.3,0-0.5-0.1L16,30.1c0-0.1,0-0.2,0-0.4c0-0.2,0.1-0.3,0.1-0.5c0-0.2,0.1-0.3,0.2-0.4
			c0.1-0.1,0.1-0.2,0.2-0.3c0.1-0.1,0.2-0.1,0.3-0.1c0.1,0,0.3,0,0.5,0.1L21.8,29.9z"/>
		<path class="st0" d="M22.1,22.5c0.4,0.2,0.8,0.5,1,0.8c0.3,0.3,0.4,0.6,0.6,1c0.1,0.3,0.1,0.7,0.1,1.1c0,0.4-0.2,0.8-0.4,1.2
			c-0.2,0.4-0.4,0.7-0.7,1c-0.3,0.3-0.6,0.5-0.9,0.6c-0.3,0.1-0.7,0.2-1.1,0.1c-0.4,0-0.8-0.2-1.2-0.4c-0.4-0.2-0.7-0.4-1-0.7
			c-0.3-0.3-0.4-0.6-0.6-1c-0.1-0.3-0.1-0.7-0.1-1.1c0-0.4,0.2-0.8,0.4-1.2c0.2-0.4,0.4-0.7,0.7-1c0.3-0.3,0.6-0.5,0.9-0.6
			c0.3-0.1,0.7-0.2,1.1-0.1C21.4,22.2,21.8,22.3,22.1,22.5z M20.4,26c0.4,0.2,0.8,0.3,1.1,0.2s0.5-0.2,0.7-0.5
			c0.1-0.3,0.1-0.6,0-0.8c-0.1-0.3-0.4-0.5-0.8-0.7C20.9,24,20.5,24,20.2,24c-0.3,0-0.5,0.2-0.7,0.5c-0.1,0.3-0.1,0.6,0,0.8
			C19.7,25.6,20,25.8,20.4,26z"/>
		<path class="st0" d="M26.7,18.5c0.5,0.4,0.7,0.8,0.7,1.3S27,21,26.5,21.6c-0.2,0.3-0.4,0.5-0.6,0.7c-0.2,0.2-0.4,0.3-0.6,0.4
			c-0.2,0.1-0.4,0.1-0.6,0.1c-0.2,0-0.3-0.1-0.5-0.2c-0.1-0.1-0.2-0.2-0.3-0.4c-0.1-0.1-0.1-0.3-0.1-0.4c0.2-0.1,0.5-0.2,0.7-0.4
			c0.3-0.2,0.5-0.4,0.7-0.7c0.1-0.2,0.2-0.3,0.3-0.5c0-0.1,0-0.2-0.1-0.3c-0.1-0.1-0.2-0.1-0.3,0c-0.1,0-0.2,0.1-0.4,0.3l-0.3,0.2
			c-0.5,0.4-1,0.7-1.4,0.8c-0.4,0.1-0.8,0-1.2-0.4c-0.2-0.2-0.4-0.4-0.5-0.6c-0.1-0.2-0.1-0.5-0.1-0.8c0-0.3,0.1-0.5,0.2-0.8
			c0.1-0.3,0.3-0.6,0.5-0.9c0.2-0.2,0.4-0.4,0.5-0.6c0.2-0.2,0.4-0.3,0.5-0.4c0.2-0.1,0.4-0.1,0.5-0.1c0.2,0,0.3,0.1,0.5,0.2
			c0.1,0.1,0.2,0.2,0.3,0.4c0.1,0.1,0.1,0.3,0.1,0.4c-0.1,0-0.2,0.1-0.3,0.1s-0.2,0.2-0.3,0.2c-0.1,0.1-0.2,0.2-0.3,0.3
			c-0.1,0.1-0.2,0.2-0.3,0.3C23.1,18.7,23,18.9,23,19c0,0.1,0,0.3,0.1,0.3c0.1,0.1,0.1,0.1,0.2,0c0.1,0,0.2-0.1,0.4-0.2l0.3-0.2
			c0.6-0.5,1.1-0.7,1.5-0.8C25.9,18.1,26.3,18.2,26.7,18.5z"/>
	</g>
</g>
<g>
	<path class="st2" d="M63.8,40.8c0,1.8-0.2,3.6-0.7,5.3c-0.3,1-0.6,2-1.1,3c-0.1,0.2-0.1,0.3-0.2,0.5c-0.2,0.5-0.5,0.9-0.7,1.3
		c-0.3,0.5-0.7,1.1-1,1.6c-0.5,0.7-1.1,1.4-1.7,2c-3.6,3.9-8.8,6.3-14.5,6.3c-11,0-19.9-8.9-19.9-19.9s8.9-19.9,19.9-19.9
		S63.8,29.8,63.8,40.8z"/>
	<path class="st14" d="M44.5,42.7h18c0.7,0,1.3-0.6,1.3-1.3v-5.9c0-0.7-0.6-1.3-1.3-1.3h-18c-0.7,0-1.3,0.6-1.3,1.3v5.9
		C43.1,42.1,43.7,42.7,44.5,42.7z"/>
	<path class="st4" d="M49.4,38.4c0,1-0.8,1.8-1.8,1.8c-1,0-1.8-0.8-1.8-1.8s0.8-1.8,1.8-1.8C48.6,36.6,49.4,37.4,49.4,38.4z"/>
	<path class="st11" d="M51,36.2H62v1.6H51V36.2z"/>
	<path class="st11" d="M51,39.1H62v1.6H51V39.1z"/>
	<path class="st14" d="M63.1,46c-0.3,1-0.6,2-1.1,3c-0.1,0.2-0.1,0.3-0.2,0.5c-0.2,0.5-0.5,0.9-0.7,1.3c-0.3,0.5-0.7,1.1-1,1.6
		c-0.5,0.7-1.1,1.4-1.7,2H44.5c-0.7,0-1.3-0.6-1.3-1.3v-5.9c0-0.7,0.6-1.3,1.3-1.3h18C62.7,45.9,62.9,45.9,63.1,46z"/>
	<path class="st19" d="M49.4,50.1c0,1-0.8,1.8-1.8,1.8c-1,0-1.8-0.8-1.8-1.8c0-1,0.8-1.8,1.8-1.8C48.6,48.3,49.4,49.1,49.4,50.1z"/>
	<path class="st11" d="M62,47.9V49c-0.1,0.2-0.1,0.3-0.2,0.5H51v-1.6H62z"/>
	<path class="st11" d="M61.1,50.8c-0.3,0.5-0.7,1.1-1,1.6H51v-1.6H61.1z"/>
	<path class="st20" d="M47.9,55.8v2.3c-2.1,1.2-4.4,2-6.9,2.4c-3.3-0.5-6.4-1.8-8.9-3.7c-1.3-0.9-2.4-2-3.4-3.2
		c0.9-2.8,3.4-4.8,6.4-5.1c0.2,0,0.4,0,0.6,0h4.8c0.6,0,1.1,0.1,1.7,0.2C45.4,49.4,47.9,52.3,47.9,55.8z"/>
	<path class="st16" d="M47.9,55.8v4.5c-1.3,0.3-2.6,0.4-4,0.4c-0.7,0-1.4,0-2.1-0.1c-3.6-0.4-7-1.7-9.8-3.8v-0.9
		c0-4.1,3.3-7.4,7.4-7.4h1c1.8,0,3.5,0.6,4.7,1.7v0c0.8,0.6,1.4,1.4,1.8,2.3C47.6,53.4,47.9,54.6,47.9,55.8z"/>
	<path class="st15" d="M30.8,40.3c0,1.2-0.9,2.2-2.1,2.4c-0.1,0-0.3,0-0.4,0c-1.4,0-2.5-1.1-2.5-2.5c0-1.4,1.1-2.5,2.5-2.5
		c0.1,0,0.3,0,0.4,0C29.9,38,30.8,39,30.8,40.3z"/>
	<path class="st14" d="M40,51.1l-2,3.2l-2-3.2"/>
	<path class="st14" d="M39.8,60.2c-1.1-0.2-2.2-0.6-3.2-1l1.5-5.8L39.8,60.2z"/>
	<path class="st17" d="M30.8,40.3c0,1.2-0.9,2.2-2.1,2.4c-0.2-0.8-0.3-1.6-0.3-2.4c0-0.8,0.1-1.7,0.3-2.4C29.9,38,30.8,39,30.8,40.3
		z"/>
	<path class="st17" d="M29.2,40.3c0,0.5-0.4,0.9-0.9,0.9c-0.5,0-0.9-0.4-0.9-0.9s0.4-0.9,0.9-0.9C28.8,39.4,29.2,39.8,29.2,40.3z"/>
	<path class="st20" d="M38.1,51.4l-3.3,1.9l-1-4.7l2.1-1.2"/>
	<path class="st20" d="M38.1,51.4l3.3,1.9l1-4.7l-2.1-1.2"/>
	<path class="st15" d="M45.3,40.3c0,1.2,0.9,2.2,2.1,2.4c0.1,0,0.3,0,0.4,0c1.4,0,2.5-1.1,2.5-2.5c0-1.4-1.1-2.5-2.5-2.5
		c-0.1,0-0.3,0-0.4,0C46.2,38,45.3,39,45.3,40.3z"/>
	<g>
		<path class="st17" d="M45.3,40.3c0,1.2,0.9,2.2,2.1,2.4c0.2-0.8,0.3-1.6,0.3-2.4c0-0.8-0.1-1.7-0.3-2.4C46.2,38,45.3,39,45.3,40.3
			z"/>
		<path class="st17" d="M48.6,40.3c0,0.5-0.4,0.9-0.9,0.9c-0.5,0-0.9-0.4-0.9-0.9s0.4-0.9,0.9-0.9C48.2,39.4,48.6,39.8,48.6,40.3z"
			/>
		<path class="st17" d="M47.2,39c0,4.5-3.3,8.3-7.7,9c-0.5,0.1-1,0.1-1.5,0.1c-5,0-9.1-4.1-9.1-9.1c0-2.4,1.7-6,3.2-7.6
			c1.7-1.8,3.2-1.5,5.9-1.5c0.5,0,1,0,1.5,0.1C43.9,30.6,47.2,34.4,47.2,39z"/>
		<path class="st17" d="M40.7,45.6v3.2c0,1.2-0.8,2.2-1.9,2.5c-0.2,0.1-0.5,0.1-0.8,0.1c-1.5,0-2.6-1.2-2.6-2.6v-3.2H40.7z"/>
	</g>
	<path class="st15" d="M40.7,48.6v0.2c0,1.2-0.8,2.2-1.9,2.5c-1-0.3-1.7-1.1-1.8-2.2c0.2,0,0.4,0,0.5,0c0.5,0,1,0,1.5-0.1
		C39.6,49,40.2,48.8,40.7,48.6z"/>
	<path class="st15" d="M47.2,39c0,4.5-3.3,8.3-7.7,9c-4.3-0.7-7.7-4.5-7.7-9c0-2.8,1.3-5.3,3.2-7c1.2-1,2.8-1.8,4.4-2
		c4.1,0.7,7.2,4,7.6,8.1C47.2,38.3,47.2,38.6,47.2,39z"/>
	<path class="st17" d="M38.1,43.9c-0.8,0-1.5-0.2-2.2-0.6c-0.2-0.1-0.3-0.4-0.2-0.6c0.1-0.2,0.4-0.3,0.6-0.2c1.1,0.6,2.5,0.6,3.7,0
		c0.2-0.1,0.4,0,0.6,0.2c0.1,0.2,0,0.4-0.2,0.6C39.6,43.7,38.8,43.9,38.1,43.9z"/>
	<path class="st11" d="M36.1,38.4c0,0.6-0.5,1-1,1c-0.6,0-1-0.5-1-1c0-0.6,0.5-1,1-1C35.6,37.4,36.1,37.9,36.1,38.4z"/>
	<path class="st11" d="M42.1,38.4c0,0.6-0.5,1-1,1c-0.6,0-1-0.5-1-1c0-0.6,0.5-1,1-1C41.6,37.4,42.1,37.9,42.1,38.4z"/>
	<path class="st12" d="M35.9,38.2c0,0.2-0.2,0.4-0.4,0.4S35,38.5,35,38.2s0.2-0.4,0.4-0.4S35.9,38,35.9,38.2z"/>
	<path class="st12" d="M41.9,38.2c0,0.2-0.2,0.4-0.4,0.4S41,38.5,41,38.2s0.2-0.4,0.4-0.4S41.9,38,41.9,38.2z"/>
	<path class="st17" d="M39.1,41H37c-0.2,0-0.4-0.2-0.4-0.4c0-0.2,0.2-0.4,0.4-0.4h2.1c0.2,0,0.4,0.2,0.4,0.4
		C39.5,40.8,39.3,41,39.1,41z"/>
	<path class="st20" d="M41.1,55.6h4v1.2h-4V55.6z"/>
	<path class="st18" d="M37.5,27.2c2.8,0.2,5,2.4,5.1,5.2l0,0.5h1.6l0.9,5.7l2.1-0.6l-0.3-5.6c-0.1-3-2.6-5.3-5.5-5.3L37.5,27.2z"/>
	<path class="st11" d="M46.7,25c2.2,2.2,2.2,5.8,0,8c-2.2,2.2-5.8,2.2-8,0L46.7,25z"/>
	<path class="st11" d="M38.8,33h-6.9L31,38.7L28.9,38l0.3-5.6c0.1-3,2.6-5.3,5.5-5.3l10,0l1.3,2.4"/>
	<path class="st18" d="M38.6,27.2c-2.8,0.2-5,2.4-5.1,5.2l0,0.5h-1.6L31,38.7L28.9,38l0.3-5.6c0.1-3,2.6-5.3,5.5-5.3L38.6,27.2z"/>
	<path class="st14" d="M44.5,31.5h18c0.7,0,1.3-0.6,1.3-1.3v-5.9c0-0.7-0.6-1.3-1.3-1.3h-18c-0.7,0-1.3,0.6-1.3,1.3v5.9
		C43.1,30.9,43.7,31.5,44.5,31.5z"/>
	<path class="st16" d="M49.4,27.2c0,1-0.8,1.8-1.8,1.8c-1,0-1.8-0.8-1.8-1.8c0-1,0.8-1.8,1.8-1.8C48.6,25.4,49.4,26.2,49.4,27.2z"/>
	<path class="st11" d="M51,25H62v1.6H51V25z"/>
	<path class="st11" d="M51,27.9H62v1.6H51V27.9z"/>
</g>
</svg>
