<svg xmlns="http://www.w3.org/2000/svg" width="138.419" height="140.806" viewBox="0 0 138.419 140.806"><defs><style>.a{fill:#eee9dc;}</style></defs><path class="a" d="M45.546,6H36A14.318,14.318,0,0,0,50.319,20.319h9.546A14.318,14.318,0,0,0,45.546,6Z" transform="translate(42.756 3.546)"/><path class="a" d="M71.865,13H62.319A14.318,14.318,0,0,0,48,27.319h9.546A14.318,14.318,0,0,0,71.865,13Z" transform="translate(59.394 13.252)"/><path class="a" d="M45.546,15H36A14.318,14.318,0,0,0,50.319,29.319h9.546A14.318,14.318,0,0,0,45.546,15Z" transform="translate(42.756 16.025)"/><path class="a" d="M59.341,59.41A33.339,33.339,0,0,0,36.378,70.983a9.375,9.375,0,0,0,1.955.227,10.414,10.414,0,0,1,8.675,4.642,5.644,5.644,0,0,0,4.7,2.518h.764A25.545,25.545,0,0,0,67.7,73.3a10.491,10.491,0,0,1,6.255-2.086h1.215a5.657,5.657,0,0,0,5.651-5.651l-.007-.255a33.214,33.214,0,0,0-16.7-5.931V16.319h4.773A14.318,14.318,0,0,0,83.207,2H73.66A14.318,14.318,0,0,0,59.341,16.319V59.41Z" transform="translate(43.28 -2)"/><rect class="a" width="19" height="6" transform="translate(19.595 76.486)"/><rect class="a" width="26" height="5" transform="translate(15.595 66.486)"/><path class="a" d="M30.865,33.092h4.773v4.773h9.546V14H7V37.865h9.546V33.092h4.773v4.773h9.546Zm0-14.319h4.773v9.546H30.865Zm-9.546,9.546H16.546V18.773h4.773Z" transform="translate(2.546 14.638)"/><rect class="a" width="10" height="5" transform="translate(23.595 57.486)"/><path class="a" d="M22.092,48.185H7.773V14.773H55.5V48.185H41.185v4.773H57.89a2.387,2.387,0,0,0,2.387-2.387V12.387A2.387,2.387,0,0,0,57.89,10H5.387A2.387,2.387,0,0,0,3,12.387V50.571a2.387,2.387,0,0,0,2.387,2.387H22.092Z" transform="translate(-3 9.092)"/><path class="a" d="M76.313,65.819A10.343,10.343,0,0,1,70.105,47.2l4.246-3.181a10.391,10.391,0,0,1,6.2-2.069h3.713A26.838,26.838,0,0,1,98.393,45.96a33.4,33.4,0,0,0-9.121-15.975,10.4,10.4,0,0,1-9.859,7.2H78.2a5.668,5.668,0,0,0-3.391,1.131A30.352,30.352,0,0,1,56.719,44.34h-.764A10.414,10.414,0,0,1,47.281,39.7a5.644,5.644,0,0,0-4.7-2.518,14.248,14.248,0,0,1-4.943-.909A33.167,33.167,0,0,0,33.317,46.86a16.309,16.309,0,0,1,1.63-.134H43.4a12.349,12.349,0,0,1,7.7,2.7l5.484,4.384a12.259,12.259,0,0,1,4.623,9.62,7.54,7.54,0,0,0,5.16,7.16l.742.248a12.3,12.3,0,0,1,8.417,11.684,16.625,16.625,0,0,1-.391,3.468,33.2,33.2,0,0,0,8.279-3.656A26.89,26.89,0,0,1,80.291,69.8,3.983,3.983,0,0,0,76.313,65.819Z" transform="translate(39.036 36.802)"/><path class="a" d="M96.529,64.252,95.786,64a12.3,12.3,0,0,1-8.417-11.684,7.509,7.509,0,0,0-2.833-5.892L79.052,42.04a7.563,7.563,0,0,0-4.713-1.654H65.89a11.9,11.9,0,0,0-2.279.248c-.045.711-.107,1.418-.107,2.138a33.429,33.429,0,0,0,31.025,33.29v4.895a7.168,7.168,0,0,1-7.16,7.16H68.277a7.168,7.168,0,0,1-7.16-7.16V69.025a11.933,11.933,0,1,0-23.865,0V80.958a7.16,7.16,0,1,1-14.319,0V52.319a7.168,7.168,0,0,0,7.16-7.16V38H11v7.16a7.168,7.168,0,0,0,7.16,7.16V80.958a11.933,11.933,0,0,0,23.865,0V69.025a7.16,7.16,0,1,1,14.319,0V80.958A11.946,11.946,0,0,0,68.277,92.89H87.369A11.946,11.946,0,0,0,99.3,80.958V76.08c.494-.038.986-.079,1.475-.136a11.741,11.741,0,0,0,.912-4.532A7.54,7.54,0,0,0,96.529,64.252Z" transform="translate(8.092 47.915)"/><path class="a" d="M77.574,42.892A22.1,22.1,0,0,0,62.524,37H58.811a5.61,5.61,0,0,0-3.341,1.115L51.227,41.3a5.569,5.569,0,0,0,3.341,10.023,8.761,8.761,0,0,1,8.751,8.751A22.117,22.117,0,0,0,65.61,69.8,33.349,33.349,0,0,0,77.638,44.16C77.638,43.732,77.591,43.315,77.574,42.892Z" transform="translate(60.781 46.529)"/></svg>