<svg xmlns="http://www.w3.org/2000/svg" width="111.673" height="140.806" viewBox="0 0 111.673 140.806"><defs><style>.a{fill:#eee9dc;}</style></defs><g transform="translate(-72 -16)"><path class="a" d="M203.628,177.637a113.09,113.09,0,0,1,24.313,14.9,38.411,38.411,0,0,0-4.643-9.98c-6.862-10.351-18-15.365-33.108-14.918a39.388,39.388,0,0,0,.04,9.946c1.145,8.494,4.989,15.131,11.425,19.728,11.623,8.3,21.874,4.232,26.3,1.656-11.434-10.446-26.083-16.8-26.239-16.871a2.428,2.428,0,0,1,1.913-4.463Z" transform="translate(-82.118 -105.604)"/><path class="a" d="M152.261,156.193a11.208,11.208,0,0,1,4.677,7.374l2.146,12.622a1.912,1.912,0,0,0,1.857,1.63h22.948a1.912,1.912,0,0,0,1.858-1.629l2.148-12.624a11.242,11.242,0,0,1,4.691-7.385A37.158,37.158,0,0,0,208.7,128.362a62.894,62.894,0,0,1-13.99,6.2,39.844,39.844,0,0,1,1.98,9.106,2.428,2.428,0,0,1-.868,2.027,28.88,28.88,0,0,1-10.344,5.034,27.556,27.556,0,0,1-7.01.914,29.14,29.14,0,0,1-17.173-5.838c-7.511-5.365-12.158-13.39-13.438-23.207a41.959,41.959,0,0,1,.341-13.282,2.428,2.428,0,0,1,2.227-1.9c10.117-.6,23.235.883,33.246,9.861.769-6.469,2.894-12.013,6.272-16.237a47.265,47.265,0,0,1,4.946-5.3,35.2,35.2,0,0,0-22.444-7.752,37.371,37.371,0,0,0-20.182,68.2Z" transform="translate(-44.578 -50.146)"/><path class="a" d="M308.021,128.942c.273.355.543.716.808,1.087,6.519-10.053,13.2-15.131,13.509-15.364a2.428,2.428,0,1,1,2.913,3.884,61.647,61.647,0,0,0-13.578,16.089q.577,1.091,1.065,2.16c6.551-2.053,18.054-6.593,20.94-13.809,3.5-8.74,0-20.627-1.651-25.287a40.682,40.682,0,0,0-18.476,13.14C309.18,116.307,308.106,123.548,308.021,128.942Z" transform="translate(-164.398 -56.909)"/><path class="a" d="M224,414.566h19.421v-4.855H231.283a2.428,2.428,0,1,1,0-4.855h12.138V400H224Z" transform="translate(-105.874 -267.471)"/><path class="a" d="M235.46,468.855h10.775L247.449,464h-13.2Z" transform="translate(-113.011 -312.05)"/><path class="a" d="M250.428,28.138A2.428,2.428,0,0,1,248,25.711V18.428a2.428,2.428,0,1,1,4.855,0v7.283A2.428,2.428,0,0,1,250.428,28.138Z" transform="translate(-122.591)"/><path class="a" d="M81.711,252.855H74.428a2.428,2.428,0,1,1,0-4.855h7.283a2.428,2.428,0,1,1,0,4.855Z" transform="translate(0 -161.597)"/><path class="a" d="M409.711,252.855h-7.283a2.428,2.428,0,1,1,0-4.855h7.283a2.428,2.428,0,1,1,0,4.855Z" transform="translate(-228.465 -161.597)"/><path class="a" d="M102.607,105.035a2.42,2.42,0,0,1-1.717-.711l-5.15-5.15a2.428,2.428,0,0,1,3.433-3.434l5.15,5.15a2.428,2.428,0,0,1-1.717,4.144Z" transform="translate(-16.041 -55.047)"/><path class="a" d="M138.427,353.035a2.428,2.428,0,0,1-1.717-4.144l5.15-5.15a2.428,2.428,0,1,1,3.433,3.434l-5.15,5.15A2.42,2.42,0,0,1,138.427,353.035Z" transform="translate(-44.578 -227.789)"/><path class="a" d="M350.607,353.035a2.42,2.42,0,0,1-1.717-.711l-5.15-5.15a2.428,2.428,0,0,1,3.433-3.434l5.15,5.15a2.428,2.428,0,0,1-1.717,4.144Z" transform="translate(-188.783 -227.789)"/></g></svg>