<?xml version="1.0" encoding="utf-8"?>
<!-- Generator: Adobe Illustrator 23.0.3, SVG Export Plug-In . SVG Version: 6.00 Build 0)  -->
<svg version="1.1" id="Layer_1" xmlns="http://www.w3.org/2000/svg" xmlns:xlink="http://www.w3.org/1999/xlink" x="0px" y="0px"
	 viewBox="0 0 80 80" style="enable-background:new 0 0 80 80;" xml:space="preserve">
<style type="text/css">
	.st0{fill:#36523F;}
	.st1{fill:none;}
	.st2{fill:#FFE152;}
	.st3{fill:#2BA1CF;}
	.st4{fill:#66BAED;}
	.st5{fill:#F2F0EC;}
	.st6{fill:#D8D5D0;}
	.st7{fill:#CC7A3B;}
	.st8{fill:#A35418;}
	.st9{fill:#EAB599;}
	.st10{fill:#F6CAAE;}
	.st11{fill:#3D4159;}
	.st12{fill:#FFFFFF;}
	.st13{fill:#BFD5DE;}
	.st14{fill:#DDE8ED;}
	.st15{fill:#D3A489;}
	.st16{fill:#F74F4F;}
	.st17{fill:#BF8E75;}
	.st18{fill:#2A2F4F;}
	.st19{fill:#3FB777;}
	.st20{fill:#DD3033;}
</style>
<g>
	<path class="st2" d="M59.7,41c0,2.9-0.6,5.7-1.8,8.3c-2,4.3-5.4,7.8-9.7,9.8c-0.8,0.4-1.6,0.7-2.4,0.9c-0.9,0.3-1.9,0.5-2.9,0.7
		c0,0,0,0,0,0c-0.5,0.1-1,0.1-1.5,0.2c-0.1,0-0.2,0-0.3,0c-0.1,0-0.3,0-0.4,0c-0.3,0-0.6,0-0.9,0c-0.3,0-0.6,0-0.9,0
		c-0.1,0-0.3,0-0.4,0c-0.1,0-0.2,0-0.3,0c-0.5,0-1-0.1-1.5-0.2c-0.2,0-0.5-0.1-0.7-0.1c-1-0.2-2-0.5-2.9-0.8
		c-0.5-0.2-1.1-0.4-1.6-0.7c-0.2-0.1-0.4-0.2-0.5-0.3c-0.5-0.2-0.9-0.5-1.3-0.7c-2.2-1.3-4.1-3-5.6-5c-0.9-1.2-1.7-2.5-2.3-3.9
		c-1.1-2.5-1.7-5.2-1.7-8.1c0-11,8.9-19.9,19.9-19.9S59.7,30,59.7,41z"/>
	<path class="st3" d="M35.9,46.9v13.6c-1-0.2-2-0.5-2.9-0.8c-0.5-0.2-1.1-0.4-1.6-0.7c-0.2-0.1-0.4-0.2-0.5-0.3
		c-0.5-0.2-0.9-0.5-1.3-0.7c-2.2-1.3-4.1-3-5.6-5c-0.9-1.2-1.7-2.5-2.3-3.9v-2.2c0-2.5,1.7-4.6,4-5.2c0.1,0,0.2,0,0.3-0.1
		c0.2-0.1,0.5-0.1,0.7-0.1c0.1,0,0.3,0,0.4,0h3.5c0.4,0,0.8,0,1.1,0.1c0,0,0,0,0.1,0c0.1,0,0.1,0,0.2,0c0,0,0,0,0,0
		c0.6,0.2,1.2,0.4,1.7,0.8C34.9,43.5,35.9,45.1,35.9,46.9z"/>
	<path class="st4" d="M35.9,46.9v13.6c-1-0.2-2-0.5-2.9-0.8c-0.5-0.2-1.1-0.4-1.6-0.7c-0.2-0.1-0.4-0.2-0.5-0.3
		c-0.5-0.2-0.9-0.5-1.3-0.7c-2.2-1.3-4.1-3-5.6-5v-6.1c0-2.5,1.7-4.6,4-5.2c0.1,0,0.2,0,0.3-0.1c0.2-0.1,0.5-0.1,0.7-0.1
		c0.1,0,0.3,0,0.4,0h1.2c0.4,0,0.8,0,1.1,0.1c0,0,0,0,0.1,0c0.1,0,0.1,0,0.2,0c0,0,0,0,0,0c0.6,0.2,1.2,0.4,1.7,0.8
		C34.9,43.5,35.9,45.1,35.9,46.9z"/>
	<path class="st5" d="M31.9,41.7L31.9,41.7l-1.6,7.6c-0.2,0.7-0.8,1.2-1.5,1.2c0,0,0,0,0,0c0,0,0,0,0,0c-0.7,0-1.4-0.5-1.5-1.2
		l-1.6-7.5l0-0.1H31.9z"/>
	<path class="st6" d="M28.7,43.8l-2.4,1.4l-0.7-3.4l1.5-0.9"/>
	<path class="st6" d="M28.7,43.8l2.4,1.4l0.7-3.4l-1.5-0.9"/>
	<path class="st7" d="M21.4,40.2v-8.1c0-0.8,0.1-1.6,0.4-2.4c1-2.9,3.8-4.9,6.9-4.9c0.4,0,0.8,0,1.1,0.1c1.7,0.3,3.2,1.1,4.4,2.4
		c1.1,1.3,1.8,3,1.8,4.7v8.1"/>
	<path class="st8" d="M24.4,32.4c0,2.9,1.7,6.2,2.6,7.8h-5.6v-8.1c0-0.8,0.1-1.6,0.4-2.4c1-2.9,3.7-4.8,6.8-4.9
		C26.4,24.9,24.4,28.5,24.4,32.4z"/>
	<path class="st9" d="M30.6,39.5v2.4c0,0.9-0.6,1.6-1.4,1.8c-0.2,0.1-0.4,0.1-0.6,0.1c-1.1,0-1.9-0.9-1.9-1.9v-2.4H30.6z"/>
	<path class="st10" d="M30.6,41.7v0.1c0,0.9-0.6,1.6-1.4,1.8c-0.7-0.2-1.2-0.8-1.3-1.6c0.1,0,0.3,0,0.4,0c0.4,0,0.7,0,1.1-0.1
		C29.8,41.9,30.2,41.8,30.6,41.7z"/>
	<path class="st10" d="M23.4,35.6c0,0.9-0.7,1.6-1.5,1.8c-0.1,0-0.2,0-0.3,0c-1,0-1.8-0.8-1.8-1.8c0-1,0.8-1.8,1.8-1.8
		c0.1,0,0.2,0,0.3,0C22.8,34,23.4,34.7,23.4,35.6z"/>
	<path class="st9" d="M23.4,35.6c0,0.9-0.7,1.6-1.5,1.8c-0.2-0.6-0.2-1.2-0.2-1.8c0-0.6,0.1-1.2,0.2-1.8
		C22.8,34,23.4,34.7,23.4,35.6z"/>
	<path class="st9" d="M22.3,35.6c0,0.4-0.3,0.6-0.6,0.6c-0.4,0-0.6-0.3-0.6-0.6c0-0.4,0.3-0.6,0.6-0.6C22,34.9,22.3,35.2,22.3,35.6z
		"/>
	<path class="st9" d="M33.3,33.3v6.2c-1,0.9-2.2,1.5-3.5,1.8c0,0,0,0,0,0c-0.3,0.1-0.7,0.1-1,0.1c-3.7,0-6.7-3-6.7-6.7v-2.5
		c0-0.3,0-0.6,0.1-1c1.6,1.1,3.9,1,5.3-0.3c0.5-0.5,0.8-1,1-1.6c0.1,1,0.6,2,1.4,2.7C30.8,32.9,32,33.3,33.3,33.3z"/>
	<path class="st10" d="M33.3,33.3v6.2c-1,0.9-2.2,1.5-3.5,1.8c0,0,0,0,0,0c-3.2-0.5-5.6-3.3-5.6-6.6v-2.5c0-0.1,0-0.1,0-0.2
		c1.2,0.1,2.4-0.2,3.3-1.1c0.5-0.5,0.8-1,1-1.6c0.1,1,0.6,2,1.4,2.7C30.8,32.9,32,33.3,33.3,33.3z"/>
	<path class="st9" d="M32.3,34.1c0-0.6-0.5-1.1-1.1-1.1s-1.1,0.5-1.1,1.1"/>
	<path class="st9" d="M27.3,34.1c0-0.6-0.5-1.1-1.1-1.1c-0.6,0-1.1,0.5-1.1,1.1"/>
	<path class="st11" d="M27,34.5c0,0.4-0.3,0.8-0.8,0.8c-0.4,0-0.8-0.3-0.8-0.8c0-0.4,0.3-0.8,0.8-0.8C26.6,33.8,27,34.1,27,34.5z"/>
	<path class="st11" d="M31.9,34.5c0,0.4-0.3,0.8-0.8,0.8s-0.8-0.3-0.8-0.8c0-0.4,0.3-0.8,0.8-0.8S31.9,34.1,31.9,34.5z"/>
	<path class="st9" d="M29.5,36.4h-1.5c-0.2,0-0.3-0.1-0.3-0.3c0-0.2,0.1-0.3,0.3-0.3h1.5c0.2,0,0.3,0.1,0.3,0.3
		C29.8,36.3,29.6,36.4,29.5,36.4z"/>
	<path class="st9" d="M28.7,38.5c-0.6,0-1.1-0.1-1.6-0.4c-0.1-0.1-0.2-0.3-0.1-0.4c0.1-0.1,0.3-0.2,0.4-0.1c0.8,0.5,1.8,0.5,2.7,0
		c0.1-0.1,0.3,0,0.4,0.1c0.1,0.1,0,0.3-0.1,0.4C29.8,38.4,29.3,38.5,28.7,38.5z"/>
	<path class="st12" d="M26.8,34.4c0,0.2-0.1,0.3-0.3,0.3c-0.2,0-0.3-0.1-0.3-0.3s0.1-0.3,0.3-0.3C26.7,34.1,26.8,34.2,26.8,34.4z"/>
	<path class="st12" d="M31.8,34.4c0,0.2-0.1,0.3-0.3,0.3c-0.2,0-0.3-0.1-0.3-0.3s0.1-0.3,0.3-0.3C31.7,34.1,31.8,34.2,31.8,34.4z"/>
	<path class="st9" d="M33.2,36.4c0,0.5-0.4,0.8-0.8,0.8c-0.5,0-0.8-0.4-0.8-0.8c0-0.5,0.4-0.8,0.8-0.8
		C32.9,35.6,33.2,35.9,33.2,36.4z"/>
	<path class="st9" d="M25.8,36.4c0,0.5-0.4,0.8-0.8,0.8c-0.5,0-0.8-0.4-0.8-0.8c0-0.5,0.4-0.8,0.8-0.8
		C25.4,35.6,25.8,35.9,25.8,36.4z"/>
	<path class="st13" d="M57.9,46.8v2.5c-2,4.3-5.4,7.8-9.7,9.8c-0.8,0.4-1.6,0.7-2.4,0.9c-0.9,0.3-1.9,0.5-2.9,0.7c0,0,0,0,0,0V46.8
		c0-3,2.3-5.4,5.2-5.6c0.2,0,0.3,0,0.5,0h3.7c0.4,0,0.9,0,1.3,0.1C56,41.8,57.9,44.1,57.9,46.8z"/>
	<path class="st14" d="M57.9,46.8v2.5c-2,4.3-5.4,7.8-9.7,9.8c-0.8,0.4-1.6,0.7-2.4,0.9V46.8c0-3.1,2.5-5.6,5.7-5.6h0.8
		C55.4,41.1,57.9,43.7,57.9,46.8z"/>
	<path class="st15" d="M44.9,34.9c0,0.9-0.7,1.7-1.6,1.9c-0.1,0-0.2,0-0.3,0c-1,0-1.9-0.8-1.9-1.9S42,33,43,33c0.1,0,0.2,0,0.3,0
		C44.2,33.2,44.9,34,44.9,34.9z"/>
	<path class="st16" d="M51.9,43.2l-1.5,2.4l-1.5-2.4"/>
	<path class="st16" d="M52.4,52.5l-2,2.6l-2-2.6l2-7.5L52.4,52.5z"/>
	<path class="st17" d="M44.9,34.9c0,0.9-0.7,1.7-1.6,1.9c-0.2-0.6-0.2-1.2-0.2-1.9c0-0.6,0.1-1.3,0.2-1.9
		C44.2,33.2,44.9,34,44.9,34.9z"/>
	<path class="st17" d="M43.7,34.9c0,0.4-0.3,0.7-0.7,0.7c-0.4,0-0.7-0.3-0.7-0.7s0.3-0.7,0.7-0.7C43.4,34.2,43.7,34.5,43.7,34.9z"/>
	<path class="st13" d="M50.4,43.4l-2.5,1.4l-0.8-3.6l1.6-0.9"/>
	<path class="st13" d="M50.4,43.4l2.5,1.4l0.8-3.6l-1.6-0.9"/>
	<path class="st15" d="M55.9,34.9c0,0.9,0.7,1.7,1.6,1.9c0.1,0,0.2,0,0.3,0c1,0,1.9-0.8,1.9-1.9S58.8,33,57.8,33c-0.1,0-0.2,0-0.3,0
		C56.6,33.2,55.9,34,55.9,34.9z"/>
	<g>
		<path class="st17" d="M55.9,34.9c0,0.9,0.7,1.7,1.6,1.9c0.2-0.6,0.2-1.2,0.2-1.9c0-0.6-0.1-1.3-0.2-1.9
			C56.6,33.2,55.9,34,55.9,34.9z"/>
		<path class="st17" d="M58.5,34.9c0,0.4-0.3,0.7-0.7,0.7c-0.4,0-0.7-0.3-0.7-0.7s0.3-0.7,0.7-0.7C58.2,34.2,58.5,34.5,58.5,34.9z"
			/>
		<path class="st17" d="M57.4,33.9c0,3.5-2.5,6.4-5.9,6.9c-0.4,0.1-0.7,0.1-1.1,0.1c-3.9,0-7-3.1-7-7c0-1.8,0.6-4.6,1.8-5.8
			c1.3-1.4,3.2-1.2,5.2-1.2c0.4,0,0.8,0,1.1,0.1C54.8,27.6,57.4,30.4,57.4,33.9z"/>
		<path class="st17" d="M52.4,39v2.5c0,0.9-0.6,1.7-1.4,1.9c-0.2,0.1-0.4,0.1-0.6,0.1c-1.1,0-2-0.9-2-2V39H52.4z"/>
	</g>
	<path class="st15" d="M52.4,41.3v0.2c0,0.9-0.6,1.7-1.4,1.9c-0.7-0.2-1.3-0.9-1.4-1.7c0.1,0,0.3,0,0.4,0c0.4,0,0.8,0,1.1-0.1
		C51.6,41.5,52,41.4,52.4,41.3z"/>
	<path class="st15" d="M57.4,33.9c0,3.5-2.5,6.4-5.9,6.9c-3.3-0.5-5.9-3.4-5.9-6.9c0-2.1,1-4.1,2.5-5.3c0.9-0.8,2.1-1.3,3.4-1.6
		c3.1,0.5,5.5,3,5.8,6.2C57.4,33.4,57.4,33.7,57.4,33.9z"/>
	<path class="st17" d="M50.4,37.3c-0.6,0-1.2-0.1-1.7-0.4c-0.2-0.1-0.2-0.3-0.1-0.4c0.1-0.2,0.3-0.2,0.4-0.1c0.9,0.5,1.9,0.5,2.8,0
		c0.1-0.1,0.3,0,0.4,0.1c0.1,0.2,0,0.3-0.1,0.4C51.6,37.2,51,37.3,50.4,37.3z"/>
	<path class="st11" d="M48.9,33.5c0,0.4-0.4,0.8-0.8,0.8c-0.4,0-0.8-0.4-0.8-0.8c0-0.4,0.4-0.8,0.8-0.8
		C48.6,32.7,48.9,33.1,48.9,33.5z"/>
	<path class="st11" d="M53.5,33.5c0,0.4-0.4,0.8-0.8,0.8c-0.4,0-0.8-0.4-0.8-0.8c0-0.4,0.4-0.8,0.8-0.8
		C53.1,32.7,53.5,33.1,53.5,33.5z"/>
	<path class="st12" d="M48.8,33.4c0,0.2-0.2,0.3-0.3,0.3s-0.3-0.2-0.3-0.3c0-0.2,0.2-0.3,0.3-0.3S48.8,33.2,48.8,33.4z"/>
	<path class="st12" d="M53.3,33.4c0,0.2-0.2,0.3-0.3,0.3s-0.3-0.2-0.3-0.3c0-0.2,0.2-0.3,0.3-0.3S53.3,33.2,53.3,33.4z"/>
	<path class="st17" d="M51.2,35.5h-1.6c-0.2,0-0.3-0.2-0.3-0.3c0-0.2,0.2-0.3,0.3-0.3h1.6c0.2,0,0.3,0.2,0.3,0.3
		C51.5,35.3,51.4,35.5,51.2,35.5z"/>
	<path class="st13" d="M52.7,46.6h3v0.9h-3V46.6z"/>
	<path class="st18" d="M50,24.9c2.1,0.2,3.8,1.9,3.9,4l0,0.4h1.2l0.7,4.4l1.6-0.5l-0.2-4.3c-0.1-2.3-2-4-4.2-4L50,24.9z"/>
	<path class="st11" d="M57,23.3c1.7,1.7,1.7,4.4,0,6.1c-1.7,1.7-4.4,1.7-6.1,0L57,23.3z"/>
	<path class="st11" d="M50.9,29.3h-5.3L45,33.7l-1.6-0.5l0.2-4.3c0.1-2.3,2-4,4.2-4l7.6,0l1,1.8"/>
	<path class="st18" d="M50.8,24.9c-2.1,0.2-3.8,1.9-3.9,4l0,0.4h-1.2L45,33.7l-1.6-0.5l0.2-4.3c0.1-2.3,2-4,4.2-4L50.8,24.9z"/>
	<path class="st11" d="M48.2,57.6v1.5c-2.6,1.2-5.4,1.9-8.4,1.9s-5.9-0.7-8.4-1.9v-1.5c0-2.9,2-5.4,4.7-6.2c0.1,0,0.2-0.1,0.3-0.1
		c0.3-0.1,0.5-0.1,0.8-0.1c0.2,0,0.3,0,0.5,0h4.1c0.5,0,0.9,0,1.4,0.1c0,0,0.1,0,0.1,0c0.1,0,0.1,0,0.2,0.1c0,0,0,0,0,0
		c0.7,0.2,1.4,0.5,2,0.9C47.1,53.5,48.2,55.4,48.2,57.6z"/>
	<path class="st4" d="M43.5,51.3L43.5,51.3l-2,9.5c-0.1,0-0.2,0-0.3,0c-0.1,0-0.3,0-0.4,0c-0.3,0-0.6,0-0.9,0c-0.3,0-0.6,0-0.9,0
		c-0.1,0-0.3,0-0.4,0c-0.1,0-0.2,0-0.3,0l-2-9.5l0-0.1H43.5z"/>
	<path class="st11" d="M41.5,53.5l-1.7,2.7L38,53.5"/>
	<path class="st11" d="M41.1,60.9c-0.1,0-0.3,0-0.4,0c-0.3,0-0.6,0-0.9,0c-0.3,0-0.6,0-0.9,0c-0.1,0-0.3,0-0.4,0l1.4-5.4L41.1,60.9z
		"/>
	<path class="st3" d="M39.8,53.8l-2.9,1.6L36,51.3l1.8-1.1"/>
	<path class="st3" d="M39.8,53.8l2.9,1.6l0.9-4.1l-1.8-1.1"/>
	<path class="st18" d="M43.6,56.8h0.9l-1.6,3.9c-0.7,0.1-1.5,0.2-2.2,0.2l2.8-9.5l0-0.1l2,0.6L43.6,56.8z"/>
	<path class="st18" d="M38.8,60.9c-0.8,0-1.5-0.1-2.2-0.2L35,56.8h0.9L34,52l2-0.6l0,0.1L38.8,60.9z"/>
	<path class="st9" d="M42,48.7v2.8c0,1-0.7,1.9-1.6,2.2c-0.2,0.1-0.4,0.1-0.7,0.1c-1.3,0-2.3-1-2.3-2.3v-2.8H42z"/>
	<path class="st10" d="M42,51.4v0.2c0,1-0.7,1.9-1.6,2.2c-0.8-0.3-1.5-1-1.6-1.9c0.2,0,0.3,0,0.5,0c0.4,0,0.9,0,1.3-0.1
		C41.1,51.7,41.6,51.5,42,51.4z"/>
	<path class="st10" d="M33.5,44.2c0,1.1-0.8,1.9-1.8,2.1c-0.1,0-0.2,0-0.3,0c-1.2,0-2.1-0.9-2.1-2.1c0-1.2,0.9-2.1,2.1-2.1
		c0.1,0,0.2,0,0.3,0C32.7,42.2,33.5,43.1,33.5,44.2z"/>
	<path class="st9" d="M33.5,44.2c0,1.1-0.8,1.9-1.8,2.1c-0.2-0.7-0.3-1.4-0.3-2.1c0-0.7,0.1-1.4,0.3-2.1
		C32.7,42.2,33.5,43.1,33.5,44.2z"/>
	<path class="st9" d="M32.2,44.2c0,0.4-0.3,0.8-0.8,0.8c-0.4,0-0.8-0.3-0.8-0.8c0-0.4,0.3-0.8,0.8-0.8
		C31.8,43.4,32.2,43.8,32.2,44.2z"/>
	<path class="st10" d="M46,44.2c0,1.1,0.8,1.9,1.8,2.1c0.1,0,0.2,0,0.3,0c1.2,0,2.1-0.9,2.1-2.1c0-1.2-0.9-2.1-2.1-2.1
		c-0.1,0-0.2,0-0.3,0C46.8,42.2,46,43.1,46,44.2z"/>
	<path class="st9" d="M46,44.2c0,1.1,0.8,1.9,1.8,2.1c0.2-0.7,0.3-1.4,0.3-2.1c0-0.7-0.1-1.4-0.3-2.1C46.8,42.2,46,43.1,46,44.2z"/>
	<path class="st9" d="M47.6,40.1v3c0,3.9-2.9,7.2-6.6,7.8c0,0,0,0,0,0c-0.4,0.1-0.8,0.1-1.2,0.1c-4.3,0-7.9-3.5-7.9-7.9v-3
		c0-0.9,0.2-1.8,0.4-2.6c1.1-3.1,4-5.3,7.4-5.3h0c0.4,0,0.8,0,1.2,0.1C44.7,32.9,47.6,36.1,47.6,40.1z"/>
	<path class="st9" d="M48.9,44.2c0,0.4-0.3,0.8-0.8,0.8c-0.4,0-0.8-0.3-0.8-0.8c0-0.4,0.3-0.8,0.8-0.8
		C48.5,43.4,48.9,43.8,48.9,44.2z"/>
	<path class="st10" d="M47.6,40.1v3c0,3.9-2.9,7.2-6.6,7.8c0,0,0,0,0,0c-3.8-0.6-6.6-3.8-6.6-7.8v-3c0-3.9,2.9-7.2,6.6-7.8
		C44.7,32.9,47.6,36.1,47.6,40.1z"/>
	<path class="st11" d="M38.1,42.6c0,0.5-0.4,0.9-0.9,0.9c-0.5,0-0.9-0.4-0.9-0.9c0-0.5,0.4-0.9,0.9-0.9
		C37.7,41.7,38.1,42.1,38.1,42.6z"/>
	<path class="st11" d="M43.2,42.6c0,0.5-0.4,0.9-0.9,0.9s-0.9-0.4-0.9-0.9c0-0.5,0.4-0.9,0.9-0.9S43.2,42.1,43.2,42.6z"/>
	<path class="st12" d="M37.9,42.4c0,0.2-0.2,0.4-0.4,0.4c-0.2,0-0.4-0.2-0.4-0.4c0-0.2,0.2-0.4,0.4-0.4
		C37.7,42.1,37.9,42.2,37.9,42.4z"/>
	<path class="st12" d="M43.1,42.4c0,0.2-0.2,0.4-0.4,0.4c-0.2,0-0.4-0.2-0.4-0.4c0-0.2,0.2-0.4,0.4-0.4
		C42.9,42.1,43.1,42.2,43.1,42.4z"/>
	<path class="st9" d="M40.6,44.5h-1.8c-0.2,0-0.4-0.2-0.4-0.4c0-0.2,0.2-0.4,0.4-0.4h1.8c0.2,0,0.4,0.2,0.4,0.4
		C41,44.3,40.9,44.5,40.6,44.5z"/>
	<path class="st9" d="M39.8,46.9c-0.7,0-1.3-0.2-1.9-0.5c-0.2-0.1-0.2-0.3-0.1-0.5c0.1-0.2,0.3-0.2,0.5-0.1c1,0.5,2.2,0.5,3.2,0
		c0.2-0.1,0.4,0,0.5,0.1c0.1,0.2,0,0.4-0.1,0.5C41.1,46.8,40.4,46.9,39.8,46.9z"/>
	<path class="st18" d="M47.6,37.3v3.1h-1.5V38l-10.6-2l-2.2-0.4v4.8h-1.5v-3.1c0-3.5,2.8-6.3,6.3-6.3h3.1c0.1,0,0.2,0,0.2,0
		C44.9,31.1,47.6,33.9,47.6,37.3z"/>
	<path class="st11" d="M47.6,37.3v3.1h-1.5V38l-10.6-2c0.6-2.8,3-4.9,6-5C44.9,31.1,47.6,33.9,47.6,37.3z"/>
</g>
<g>
	<g>
		<g>
			<path class="st0" d="M39.8,69.2c-5.4,0-10.7-1.5-15.3-4.3c-0.3-0.2-0.3-0.5-0.2-0.7c0.2-0.3,0.5-0.3,0.7-0.2
				c4.4,2.7,9.5,4.2,14.7,4.2c15.5,0,28-12.6,28-28c0-15.5-12.6-28-28-28c-5.2,0-10.3,1.4-14.7,4.2c-0.3,0.2-0.6,0.1-0.7-0.2
				c-0.2-0.3-0.1-0.6,0.2-0.7c4.6-2.8,9.9-4.3,15.3-4.3c16,0,29.1,13.1,29.1,29.1S55.8,69.2,39.8,69.2z"/>
		</g>
	</g>
	<g>
		<circle class="st1" cx="45" cy="39.4" r="29.1"/>
		<path class="st0" d="M18.7,61.2c0-0.1,0.1-0.2,0.1-0.2s0.1-0.2,0.2-0.2c0.2-0.1,0.3-0.2,0.4-0.2c0.1,0,0.2,0.1,0.3,0.2l1.2,1.3
			l0.7-0.6L20.4,60c0-0.1,0-0.2,0.1-0.2c0.1-0.1,0.1-0.2,0.2-0.2c0.2-0.1,0.3-0.2,0.4-0.2s0.2,0.1,0.3,0.2l1,1.1l1.3-1.2
			c0.1,0,0.1,0.1,0.2,0.2c0.1,0.1,0.2,0.2,0.3,0.3c0.1,0.1,0.2,0.2,0.2,0.3c0.1,0.1,0.1,0.2,0.1,0.2c0,0.1,0,0.2-0.1,0.2
			c0,0.1-0.1,0.2-0.2,0.3l-2.6,2.4c-0.2,0.2-0.4,0.2-0.6,0.2c-0.2,0-0.4-0.1-0.5-0.3L18.7,61.2z"/>
		<path class="st0" d="M18.9,59.7c0,0-0.1-0.1-0.2-0.2s-0.2-0.2-0.2-0.3c-0.1-0.1-0.1-0.2-0.2-0.3c0-0.1-0.1-0.2-0.1-0.3
			c0-0.1,0-0.2,0.1-0.2s0.1-0.2,0.2-0.2l1.5-1c0.2-0.1,0.3-0.3,0.3-0.4c0-0.1,0-0.3-0.2-0.5c-0.1-0.1-0.1-0.2-0.2-0.2
			C19.9,56,19.8,56,19.8,56l-2.4,1.6c0,0-0.1-0.1-0.2-0.2c-0.1-0.1-0.2-0.2-0.2-0.3c-0.1-0.1-0.1-0.2-0.2-0.3c0-0.1-0.1-0.2-0.1-0.3
			s0-0.2,0.1-0.2c0.1-0.1,0.1-0.2,0.2-0.2l2.1-1.4c0.2-0.2,0.5-0.2,0.7-0.1c0.2,0.1,0.4,0.2,0.6,0.4c0.2,0.2,0.4,0.4,0.6,0.7
			c0.2,0.2,0.3,0.5,0.4,0.7c0.1,0.2,0.1,0.5,0.1,0.7c0,0.2-0.1,0.4-0.2,0.6c-0.1,0.2-0.3,0.4-0.6,0.6L18.9,59.7z"/>
		<path class="st0" d="M16.2,52.4c-0.2,0.1-0.2,0.2-0.3,0.3c0,0.1,0,0.3,0.1,0.4c0,0.1,0.1,0.2,0.2,0.3c0.1,0.1,0.1,0.1,0.2,0.2
			l2.6-1.2c0,0,0.1,0.1,0.2,0.2c0.1,0.1,0.1,0.2,0.2,0.3c0.1,0.1,0.1,0.2,0.1,0.3c0,0.1,0,0.2,0,0.3c0,0.1-0.1,0.2-0.1,0.2
			c-0.1,0.1-0.2,0.1-0.3,0.2L16.8,55C16.6,55,16.5,55,16.4,55c-0.1,0-0.2-0.1-0.3-0.1c-0.2-0.1-0.4-0.3-0.6-0.5
			c-0.2-0.2-0.4-0.5-0.5-0.8c-0.3-0.6-0.3-1.1-0.2-1.5c0.1-0.4,0.4-0.7,0.8-0.9l2.3-1.1c0,0,0.1,0.1,0.2,0.2
			c0.1,0.1,0.1,0.2,0.2,0.3c0.1,0.1,0.1,0.2,0.1,0.3c0,0.1,0,0.2,0,0.3s-0.1,0.2-0.1,0.2c-0.1,0.1-0.2,0.1-0.3,0.2L16.2,52.4z"/>
		<path class="st0" d="M14.1,48.1c0,0.1,0.1,0.3,0.2,0.4c0.1,0.1,0.2,0.2,0.3,0.3c0.1,0.1,0.2,0.1,0.4,0.1s0.3,0,0.4,0
			c0.3-0.1,0.5-0.3,0.6-0.5c0.1-0.2,0.1-0.5,0-0.8c0-0.2-0.1-0.3-0.2-0.4c-0.1-0.1-0.1-0.2-0.2-0.3c0-0.1,0.1-0.2,0.2-0.3
			s0.2-0.1,0.3-0.2c0.2-0.1,0.4,0,0.6,0.2c0.2,0.2,0.3,0.4,0.4,0.8c0.1,0.3,0.1,0.6,0.1,0.9c0,0.3-0.1,0.6-0.2,0.8
			c-0.1,0.2-0.3,0.5-0.5,0.6c-0.2,0.2-0.5,0.3-0.8,0.4c-0.3,0.1-0.7,0.1-1,0.1c-0.3,0-0.6-0.1-0.8-0.3c-0.2-0.1-0.4-0.3-0.6-0.6
			s-0.3-0.5-0.4-0.8C13,48.3,13,48,13.1,47.7c0.1-0.2,0.2-0.4,0.4-0.5c0.1,0,0.2,0,0.3,0s0.2,0.1,0.3,0.1c0,0.1,0,0.2,0,0.4
			C14,47.9,14.1,48,14.1,48.1z"/>
		<path class="st0" d="M11.6,46.7c-0.2,0-0.4,0-0.6-0.1c-0.2-0.1-0.3-0.3-0.3-0.5c0-0.2,0-0.4,0.1-0.6c0.1-0.2,0.3-0.3,0.5-0.3
			c0.2,0,0.4,0,0.6,0.1c0.2,0.1,0.3,0.3,0.3,0.5c0,0.2,0,0.4-0.1,0.6C11.9,46.5,11.8,46.6,11.6,46.7z M16.3,44.3
			c0,0.1,0.1,0.1,0.1,0.3c0,0.1,0.1,0.2,0.1,0.3c0,0.1,0,0.2,0,0.3c0,0.1,0,0.2-0.1,0.3c0,0.1-0.1,0.1-0.2,0.2
			c-0.1,0.1-0.2,0.1-0.3,0.1l-3.3,0.6c0-0.1-0.1-0.1-0.1-0.3c0-0.1-0.1-0.2-0.1-0.3c0-0.1,0-0.2,0-0.3s0-0.2,0.1-0.3
			c0-0.1,0.1-0.1,0.2-0.2c0.1-0.1,0.2-0.1,0.3-0.1L16.3,44.3z"/>
		<path class="st0" d="M13.8,39.6c0.3,0,0.6,0,0.9,0.1c0.3,0.1,0.5,0.2,0.7,0.4c0.2,0.2,0.3,0.4,0.5,0.6c0.1,0.3,0.2,0.5,0.2,0.9
			c0,0.3,0,0.6-0.1,0.9c-0.1,0.3-0.2,0.5-0.4,0.7s-0.4,0.4-0.6,0.5c-0.3,0.1-0.5,0.2-0.9,0.2c-0.3,0-0.6,0-0.9-0.1
			c-0.3-0.1-0.5-0.2-0.7-0.4c-0.2-0.2-0.4-0.4-0.5-0.6c-0.1-0.3-0.2-0.5-0.2-0.9c0-0.3,0-0.6,0.1-0.9c0.1-0.3,0.2-0.5,0.4-0.7
			c0.2-0.2,0.4-0.4,0.6-0.5C13.2,39.7,13.5,39.6,13.8,39.6z M14.1,42.4c0.3,0,0.6-0.1,0.8-0.3c0.2-0.1,0.2-0.3,0.2-0.6
			s-0.1-0.4-0.3-0.5S14.3,41,14,41c-0.3,0-0.6,0.1-0.7,0.2C13,41.4,13,41.6,13,41.8c0,0.2,0.1,0.4,0.3,0.5
			C13.5,42.4,13.7,42.5,14.1,42.4z"/>
		<path class="st0" d="M13.5,36.2c-0.2,0-0.3,0-0.4,0.1c-0.1,0.1-0.1,0.2-0.2,0.4c0,0.1,0,0.2,0,0.3s0.1,0.2,0.1,0.3l2.8,0.2
			c0,0.1,0,0.1,0,0.3c0,0.1,0,0.2,0,0.4c0,0.1,0,0.2-0.1,0.3c0,0.1-0.1,0.2-0.1,0.2c-0.1,0.1-0.1,0.1-0.2,0.1c-0.1,0-0.2,0-0.3,0
			l-2.5-0.2c-0.1,0-0.3-0.1-0.4-0.1c-0.1-0.1-0.2-0.2-0.2-0.3c-0.1-0.2-0.2-0.4-0.3-0.7c-0.1-0.3-0.1-0.6,0-0.9
			c0.1-0.6,0.2-1.1,0.5-1.4s0.7-0.4,1.2-0.4l2.6,0.2c0,0.1,0,0.1,0,0.3c0,0.1,0,0.2,0,0.4c0,0.1,0,0.2-0.1,0.3
			c0,0.1-0.1,0.2-0.1,0.2c-0.1,0.1-0.1,0.1-0.2,0.1s-0.2,0-0.3,0L13.5,36.2z"/>
		<path class="st0" d="M12.7,31.8c0.1-0.3,0.2-0.5,0.3-0.8c0.1-0.2,0.3-0.4,0.4-0.5c0.2-0.1,0.3-0.2,0.5-0.3c0.2,0,0.4,0,0.7,0
			l1.8,0.4c0.1,0,0.2,0.1,0.3,0.2c0.1,0.1,0.1,0.2,0.2,0.3c0.1,0.4,0.1,0.9,0,1.5c-0.1,0.3-0.2,0.5-0.3,0.7
			c-0.1,0.2-0.2,0.4-0.4,0.5c-0.1,0.1-0.3,0.2-0.5,0.3c-0.2,0-0.4,0-0.6,0c-0.4-0.1-0.6-0.3-0.8-0.5c-0.1-0.3-0.2-0.6-0.1-1.1
			l0.1-1.1l-0.1,0c-0.2,0-0.3,0-0.4,0.1c-0.1,0.1-0.2,0.3-0.2,0.6c0,0.2-0.1,0.4-0.1,0.6c0,0.2,0,0.4,0,0.6
			c-0.1,0.1-0.2,0.1-0.3,0.1c-0.1,0-0.2,0-0.3,0c-0.1,0-0.2-0.1-0.3-0.2c-0.1-0.1-0.1-0.2-0.1-0.4c0-0.2,0-0.4,0-0.6
			C12.6,32.1,12.6,31.9,12.7,31.8z M15.9,32.5c0-0.1,0-0.2,0-0.3c0-0.1,0-0.2,0-0.3l-0.6-0.2l-0.1,0.6c0,0.2,0,0.3,0,0.4
			c0,0.1,0.1,0.2,0.2,0.2c0.1,0,0.2,0,0.3-0.1C15.7,32.8,15.8,32.7,15.9,32.5z"/>
		<path class="st0" d="M17.9,28.8c0,0.1,0,0.1,0,0.3c0,0.1-0.1,0.2-0.1,0.3c0,0.1-0.1,0.2-0.1,0.3c0,0.1-0.1,0.1-0.2,0.2
			S17.3,30,17.2,30c-0.1,0-0.2,0-0.3-0.1L14.6,29c-0.1,0-0.2-0.1-0.3-0.2c-0.1-0.1-0.1-0.2-0.2-0.3c0-0.1-0.1-0.2-0.1-0.4
			c0-0.1,0-0.3,0-0.4c0-0.2,0-0.3,0.1-0.5c0-0.2,0.1-0.3,0.1-0.5c0.1-0.2,0.2-0.4,0.4-0.5c0.2-0.1,0.3-0.1,0.5,0
			c0.1,0,0.1,0.1,0.2,0.1c0.1,0,0.1,0.1,0.2,0.1c0,0.1-0.1,0.2-0.1,0.3c0,0.1-0.1,0.2-0.1,0.3c0,0.1,0,0.2-0.1,0.3
			c0,0.1,0,0.2,0,0.3L17.9,28.8z"/>
		<path class="st0" d="M14.1,24.8c-0.2-0.1-0.3-0.2-0.4-0.4s0-0.4,0.1-0.6c0.1-0.2,0.3-0.3,0.4-0.4s0.4,0,0.6,0
			c0.2,0.1,0.3,0.2,0.4,0.4c0.1,0.2,0,0.4-0.1,0.6c-0.1,0.2-0.2,0.3-0.4,0.4C14.4,25,14.3,24.9,14.1,24.8z M19.3,25.8
			c0,0.1,0,0.1-0.1,0.3c0,0.1-0.1,0.2-0.1,0.3c-0.1,0.1-0.1,0.2-0.2,0.3c-0.1,0.1-0.1,0.1-0.2,0.2c-0.1,0-0.2,0.1-0.2,0
			c-0.1,0-0.2,0-0.3-0.1l-3-1.5c0-0.1,0-0.1,0.1-0.3c0-0.1,0.1-0.2,0.1-0.3c0.1-0.1,0.1-0.2,0.2-0.3c0.1-0.1,0.1-0.1,0.2-0.2
			c0.1,0,0.2-0.1,0.2,0c0.1,0,0.2,0,0.3,0.1L19.3,25.8z"/>
		<path class="st0" d="M20.2,20.6c0.3,0.2,0.5,0.4,0.7,0.6c0.2,0.2,0.3,0.5,0.3,0.7c0,0.3,0,0.5,0,0.8c-0.1,0.3-0.2,0.5-0.4,0.8
			c-0.2,0.3-0.4,0.5-0.6,0.7c-0.2,0.2-0.5,0.3-0.7,0.3c-0.3,0.1-0.5,0.1-0.8,0s-0.6-0.2-0.8-0.4c-0.3-0.2-0.5-0.4-0.7-0.6
			c-0.2-0.2-0.3-0.5-0.3-0.7s0-0.5,0-0.8c0.1-0.3,0.2-0.5,0.4-0.8c0.2-0.3,0.4-0.5,0.6-0.7c0.2-0.2,0.5-0.3,0.7-0.3
			c0.3-0.1,0.5-0.1,0.8,0C19.6,20.3,19.9,20.4,20.2,20.6z M18.6,23c0.3,0.2,0.5,0.3,0.7,0.3c0.2,0,0.4-0.1,0.5-0.3
			c0.1-0.2,0.1-0.4,0.1-0.6c-0.1-0.2-0.3-0.4-0.5-0.6c-0.3-0.2-0.5-0.3-0.7-0.3c-0.2,0-0.4,0.1-0.5,0.3C18,22,18,22.2,18.1,22.4
			C18.2,22.6,18.3,22.8,18.6,23z"/>
		<path class="st0" d="M23.6,18c0.3,0.3,0.5,0.6,0.4,1s-0.2,0.8-0.7,1.3c-0.2,0.2-0.3,0.3-0.5,0.4s-0.3,0.2-0.4,0.3
			C22.3,21,22.1,21.1,22,21c-0.1,0-0.2-0.1-0.4-0.2c-0.1-0.1-0.2-0.2-0.2-0.3c0-0.1,0-0.2,0-0.3c0.2-0.1,0.4-0.1,0.5-0.3
			c0.2-0.1,0.4-0.3,0.5-0.5c0.1-0.1,0.2-0.2,0.2-0.3c0-0.1,0-0.2-0.1-0.2c-0.1-0.1-0.1-0.1-0.2,0c-0.1,0-0.2,0.1-0.3,0.2l-0.2,0.2
			c-0.4,0.3-0.7,0.5-1,0.5c-0.3,0-0.6-0.1-0.9-0.3c-0.2-0.1-0.3-0.3-0.3-0.5c-0.1-0.2-0.1-0.4-0.1-0.5c0-0.2,0.1-0.4,0.2-0.6
			c0.1-0.2,0.2-0.4,0.4-0.6c0.1-0.2,0.3-0.3,0.4-0.4s0.3-0.2,0.4-0.3c0.1-0.1,0.3-0.1,0.4-0.1c0.1,0,0.2,0.1,0.3,0.1
			c0.1,0.1,0.2,0.2,0.2,0.3c0,0.1,0.1,0.2,0.1,0.3c0,0-0.1,0-0.2,0.1c-0.1,0-0.2,0.1-0.3,0.2s-0.2,0.1-0.3,0.2
			c-0.1,0.1-0.2,0.1-0.2,0.2c-0.1,0.1-0.2,0.3-0.2,0.4c0,0.1,0,0.2,0,0.2c0,0,0.1,0.1,0.2,0s0.2-0.1,0.3-0.2l0.2-0.2
			c0.4-0.3,0.8-0.5,1.1-0.5C23,17.7,23.3,17.8,23.6,18z"/>
	</g>
</g>
</svg>
