<svg height="512" viewBox="0 0 128 128" width="512" xmlns="http://www.w3.org/2000/svg"><g><path d="m71 87.917a1.75 1.75 0 0 1 -1.6-2.466c.055-.122 5.462-12.293 5.292-20.666a69.06 69.06 0 0 0 -.987-8.746c-1.1-7.134-2.229-14.509 1.271-19.872a1.878 1.878 0 0 1 .138-.184l6.43-7.5a1.75 1.75 0 0 1 2.656 2.28l-6.351 7.406c-2.695 4.247-1.673 10.9-.684 17.336a72.91 72.91 0 0 1 1.035 9.21c.186 9.162-5.362 21.641-5.6 22.168a1.751 1.751 0 0 1 -1.6 1.034z" fill="#a5cc2a"/><path d="m75.906 60.246c-11.969 1.739-17.835-3.031-19.458-10.57 11.706-5.896 18.733 5.569 19.458 10.57z" fill="#bae543"/><path d="m62.9 111.424c-8.741 5.7-20.461 4.3-26.74 2.937a4.832 4.832 0 0 1 -3.7-5.685c1.288-6.3 4.741-17.582 13.482-23.279s20.458-4.297 26.736-2.936a4.833 4.833 0 0 1 3.7 5.685c-1.278 6.295-4.736 17.581-13.478 23.278z" fill="#d78759"/><path d="m76.481 95.55c-2.46 7.29-6.84 15.81-14.53 20.82-10.81 7.04-25.29 5.32-33.06 3.63a5.983 5.983 0 0 1 -4.58-7.03c1.6-7.78 5.86-21.73 16.67-28.77 7.16-4.66 15.94-5.48 23.3-5.01a69.009 69.009 0 0 0 -2.13 7.95 5.968 5.968 0 0 0 4.58 7.03 67.653 67.653 0 0 0 9.75 1.38z" fill="#f4a86c"/><path d="m42.228 117.25a1.75 1.75 0 0 1 0-3.5 36.839 36.839 0 0 0 7.739-.764 1.75 1.75 0 0 1 .738 3.422 40.345 40.345 0 0 1 -8.477.842z" fill="#d78759"/><path d="m76.446 37.123c1.528-22.023 12.308-30.646 26.387-30.623 5.99 23.165-17.184 31.265-26.387 30.623z" fill="#bae543"/></g></svg>