<?xml version="1.0" encoding="utf-8"?>
<!-- Generator: Adobe Illustrator 23.0.3, SVG Export Plug-In . SVG Version: 6.00 Build 0)  -->
<svg version="1.1" id="Capa_1" xmlns="http://www.w3.org/2000/svg" xmlns:xlink="http://www.w3.org/1999/xlink" x="0px" y="0px"
	 viewBox="0 0 512 512" style="enable-background:new 0 0 512 512;" xml:space="preserve">
<style type="text/css">
	.st0{fill:#DAB46B;}
	.st1{fill:#AAD880;}
	.st2{fill:#9BD069;}
	.st3{fill:#CBA763;}
	.st4{fill:#7FB241;}
	.st5{fill:#8E6D53;}
	.st6{fill:#E14B4B;}
	.st7{fill:#D03F3F;}
</style>
<g>
	<g>
		<g>
			<path class="st0" d="M236.8,349.6c-2,0-4-0.8-5.5-2.3l-78.8-78.8c-3-3-3-7.9,0-10.9c3-3,7.9-3,10.9,0l78.8,78.8c3,3,3,7.9,0,10.9
				C240.8,348.9,238.8,349.6,236.8,349.6L236.8,349.6z"/>
		</g>
	</g>
	<path class="st1" d="M85.5,214.2c-0.5,0-1,0.1-1.4,0.2c-15.3,2.4-26.4,14.6-37.3,19.3c-17.2,7.3-23.3,12.9-23.3,23.5
		s6.1,16.2,23.3,23.5c10.9,4.6,22,16.9,37.3,19.3c12.7,2,27.2-5.8,41.8-5.8c14.5,0,29.1,7.8,41.8,5.8c15.3-2.4,26.4-14.6,37.3-19.3
		c12-5.1,18.6-9.4,21.5-15.2l0.5-15.6c-2.6-6.3-9.2-10.8-22-16.3c-6.5-2.8-13.1-8.3-20.7-12.8L85.5,214.2z"/>
	<path class="st2" d="M204.9,233.6c-6.5-2.8-13.1-8.3-20.7-12.8c-1.3,0.5-2.6,1-3.9,1.3c2.6,2.2,4.4,4.5,5.4,7.1l-0.5,15.6
		c-2.9,5.7-9.5,10-21.5,15.2c-10.9,4.6-22,16.9-37.3,19.3c-12.7,2-27.2-5.8-41.8-5.8c-14.1,0-28.2,7.3-40.6,6
		c0.9,0.4,1.8,0.8,2.7,1.2c10.9,4.6,22,16.9,37.3,19.3c12.7,2,27.2-5.8,41.8-5.8c14.5,0,29.1,7.8,41.8,5.8
		c15.3-2.4,26.4-14.6,37.3-19.3c12-5.1,18.6-9.4,21.5-15.2l5-5.6l-4.5-10C224.4,243.6,217.8,239.1,204.9,233.6L204.9,233.6z"/>
	<g>
		<g>
			<path class="st3" d="M258.4,394.9c-2,0-4-0.8-5.5-2.3c-3-3-3-7.9,0-10.9l84.5-84.5c3-3,7.9-3,10.9,0c3,3,3,7.9,0,10.9l-84.5,84.5
				C262.4,394.2,260.4,394.9,258.4,394.9L258.4,394.9z"/>
		</g>
	</g>
	<path class="st1" d="M399.7,299.7c-8.1-3.4-16.3-12.5-27.6-14.3c-9.4-1.5-20.2,4.3-31,4.3c-10.8,0-21.6-5.8-31-4.3
		c-11.3,1.8-19.6,10.8-27.6,14.3c-10.2,4.4-15.2,7.9-16.7,13.2l-2.6,4.3l2.9,5.2c1.8,4.8,6.8,8.1,16.4,12.2
		c8.1,3.4,16.3,12.5,27.6,14.3c9.4,1.5,20.2-4.3,31-4.3c10.8,0,21.6,5.8,31,4.3c11.3-1.8,19.6-10.8,27.6-14.3
		c12.7-5.4,17.3-9.6,17.3-17.4S412.5,305.1,399.7,299.7z"/>
	<g>
		<g>
			<path class="st0" d="M235.3,410.9c-2,0-4-0.8-5.5-2.3l-40.5-40.5c-3-3-3-7.9,0-10.9c3-3,7.9-3,10.9,0l40.5,40.5c3,3,3,7.9,0,10.9
				C239.3,410.1,237.3,410.9,235.3,410.9L235.3,410.9z"/>
		</g>
	</g>
	<g>
		<g>
			<path class="st3" d="M258.9,431.8c-2,0-4-0.8-5.5-2.3c-3-3-3-7.9,0-10.9l32-32c3-3,7.9-3,10.9,0c3,3,3,7.9,0,10.9l-32,32
				C262.8,431,260.9,431.8,258.9,431.8z"/>
		</g>
	</g>
	<path class="st0" d="M296.5,495.1c-16.4-16.4-25.9-38.3-26.7-61.4l-6.4-192.3c-3.5-2.3,5-24.3,1.7-25.7
		c-14.7-6.3-34.2,8.5-37.1,1.2l-7.2,216.9c-0.8,23.1-10.3,45.1-26.7,61.4l-15,15c-0.7,0.7-0.2,2,0.8,2h130.6c1,0,1.5-1.2,0.8-2
		L296.5,495.1z"/>
	<path class="st3" d="M311.5,510l-15-15c-16.4-16.4-25.9-38.3-26.7-61.4l-6.4-192.3c-3.5-2.3-2.6-19-5.9-20.4
		c-9.9-4.2-20.9,6.7-25.1,2.5l6.5,194.8c0.8,23.1,10.3,45.1,26.7,61.4c6.2,6.2,1.8,16.9-7,16.9h-65.9L179.2,510
		c-0.7,0.7-0.2,2,0.8,2h130.6C311.7,512,312.2,510.8,311.5,510L311.5,510z"/>
	<path class="st0" d="M256.7,208.6c2.7-1.1,1.9-29.6,4.7-31.3l-2.3-67.9c-4.6-0.4-8.5-21.3-11.4-21.3s-11.5,20.9-16,21.3l-3,89.7
		C231.9,192.5,242.8,214.5,256.7,208.6z"/>
	<path class="st1" d="M384.5,58.6c0,14.4-8.3,22-31.7,32c-14.8,6.3-29.9,22.9-50.7,26.2c-17.2,2.7-37-7.9-56.8-7.9
		c-19.8,0-39.6,10.6-56.8,7.9c-20.8-3.3-35.9-19.9-50.7-26.2c-23.4-10-31.7-17.6-31.7-32s8.3-22,31.7-32
		c14.8-6.3,29.9-22.9,50.7-26.2c17.2-2.7,37,7.9,56.8,7.9c19.8,0,39.6-10.6,56.8-7.9c20.8,3.3,35.9,19.9,50.7,26.2
		C376.2,36.6,384.5,44.2,384.5,58.6z"/>
	<path class="st1" d="M229.1,186c0,9.2-5.3,14-20.1,20.3c-9.4,4-18.9,14.5-32.1,16.6c-10.9,1.7-23.5-5-36-5c-12.5,0-25.1,6.7-36,5
		c-13.2-2.1-22.8-12.6-32.1-16.6C57.8,200,52.5,195.2,52.5,186s5.3-14,20.1-20.3c9.4-4,18.9-14.5,32.1-16.6c10.9-1.7,23.5,5,36,5
		c12.5,0,25.1-6.7,36-5c13.2,2.1,22.8,12.6,32.1,16.6C223.8,172.1,229.1,176.9,229.1,186L229.1,186z"/>
	<path class="st1" d="M279.2,114.9c-3,3.5-4.3,7.4-4.3,12.3c0,11.1,6.4,16.9,24.3,24.6c11.3,4.8,22.9,17.6,38.9,20.1
		c13.2,2.1,28.4-6.1,43.6-6.1c15.2,0,30.4,8.1,43.6,6.1c16-2.5,27.6-15.2,38.9-20.1c18-7.7,24.3-13.5,24.3-24.6s-6.4-16.9-24.3-24.6
		c-11.3-4.8-22.9-17.6-38.9-20.1c-13.2-2.1-28.4,6.1-43.6,6.1c-6.2,0-12.4-1.4-18.5-2.8L279.2,114.9z"/>
	<path class="st1" d="M434,181.7c-5.2-2.2-10.4-5.9-15.9-9.7c-11.4-0.8-9.4-27-21.9-27c-15.2,0-35.4,13.1-48.6,11.1
		c-8.9-1.4-25.9,9.7-32.8,5.1c-6.6-1.5-12.9-2.4-18.9-1.5c-17.5,2.7-30.2,16.7-42.6,22c-19.7,8.4-26.6,14.8-26.6,26.9
		s7,18.5,26.6,26.9c12.4,5.3,25.1,19.3,42.6,22c14.5,2.3,31.1-6.6,47.7-6.6s33.3,8.9,47.7,6.6c17.5-2.7,30.2-16.7,42.6-22
		c19.7-8.4,26.6-14.8,26.6-26.9C460.6,196.5,453.7,190.1,434,181.7L434,181.7z"/>
	<g>
		<path class="st2" d="M352.8,26.6C338.1,20.3,323,3.7,302.2,0.4c-0.3,0-0.5-0.1-0.8-0.1c3.5,2.2,6.9,4.2,10.3,5.7
			c23.4,10,31.7,17.6,31.7,32s-8.3,22-31.7,32c-14.8,6.3-29.9,22.9-50.7,26.2c-17.2,2.7-37-7.9-56.8-7.9c-19.5,0-38.9,10.3-56,8
			c11.7,7.5,24.4,18,40.4,20.5c17.2,2.7,37-7.9,56.8-7.9c19.8,0,39.6,10.6,56.8,7.9c20.8-3.3,35.9-19.9,50.7-26.2
			c23.4-10,31.7-17.6,31.7-32C384.5,44.2,376.2,36.6,352.8,26.6L352.8,26.6z"/>
		<path class="st2" d="M209,165.8c-9.4-4-18.9-14.5-32.1-16.6c-0.3,0-0.6-0.1-0.8-0.1c8.6,4.7,11.9,9.2,11.9,16.4
			c0,9.2-5.3,14-20.1,20.3c-9.4,4-18.9,14.5-32.1,16.6c-10.9,1.7-23.5-5-36-5c-12.2,0-24.5,6.4-35.2,5.1c2.3,1.3,5.1,2.5,8.2,3.9
			c9.4,4,18.9,14.5,32.1,16.6c10.9,1.7,23.5-5,36-5s25.1,6.7,36,5c13.2-2.1,22.8-12.6,32.1-16.6c14.8-6.3,20.1-11.1,20.1-20.3
			C229.1,176.9,223.8,172.1,209,165.8L209,165.8z"/>
		<path class="st2" d="M464.2,102.6c-11.3-4.8-22.9-17.6-38.9-20.1c-0.5-0.1-1-0.1-1.5-0.2c17.4,7.5,23.6,13.3,23.6,24.2
			c0,11.1-6.4,16.9-24.3,24.6c-11.3,4.8-22.9,17.6-38.9,20.1c-13.2,2.1-28.4-6.1-43.6-6.1c-14.6,0-29.2,7.5-42.1,6.3
			c0.3,0.1,0.5,0.2,0.8,0.3c11.3,4.8,22.9,17.6,38.9,20.1c13.2,2.1,28.4-6.1,43.6-6.1c15.2,0,30.4,8.1,43.6,6.1
			c16-2.5,27.6-15.2,38.9-20.1c18-7.7,24.3-13.5,24.3-24.6C488.6,116.1,482.2,110.3,464.2,102.6L464.2,102.6z"/>
		<path class="st2" d="M434,181.7c-5.2-2.2-10.4-5.9-15.9-9.7c-2.3-0.2-4.6-0.5-6.9-1c5.9,4.7,8.3,9.8,8.3,16.9
			c0,12.1-7,18.5-26.6,26.9c-12.4,5.3-25.1,19.3-42.6,22c-14.5,2.3-31.1-6.6-47.7-6.6c-15.9,0-31.8,8.1-45.8,6.9
			c11.4,6.1,23.3,17.9,39.2,20.4c14.5,2.3,31.1-6.6,47.7-6.6s33.3,8.9,47.7,6.6c17.5-2.7,30.2-16.7,42.6-22
			c19.7-8.4,26.6-14.8,26.6-26.9C460.6,196.5,453.7,190.1,434,181.7L434,181.7z"/>
		<path class="st2" d="M399.7,299.7c-8.1-3.4-16.3-12.5-27.6-14.3c-0.7-0.1-1.4-0.2-2.1-0.2c4.1,3.1,5.8,6.5,5.8,11.3
			c0,7.9-4.5,12-17.3,17.4c-8.1,3.4-16.3,12.5-27.6,14.3c-9.4,1.5-20.2-4.3-31-4.3c-10,0-20,4.9-28.8,4.5c2.7,2,6.4,4,11.5,6.1
			c8.1,3.4,16.3,12.5,27.6,14.3c9.4,1.5,20.2-4.3,31-4.3s21.6,5.8,31,4.3c11.3-1.8,19.6-10.8,27.6-14.3c12.7-5.4,17.3-9.6,17.3-17.4
			C417,309.2,412.5,305.1,399.7,299.7L399.7,299.7z"/>
	</g>
</g>
<g>
	
		<image style="overflow:visible;opacity:2.000000e-02;" width="53" height="58" xlink:href="46EB06DA.png"  transform="matrix(1 0 0 1 142.533 32.3776)">
	</image>
	<g>
		<g>
			<path class="st4" d="M162.1,47.1c-4,0.4-6.9-2.6-6.6-6.6C159.5,40.2,162.5,43.1,162.1,47.1z"/>
			<path class="st5" d="M162.3,49.9c-0.3-0.1-0.6-0.4-0.7-0.7c-0.2-1.7,0.3-3.4,1.4-4.7c1.1-1.3,2.6-2.2,4.3-2.4
				c0.5-0.1,0.9,0.3,1,0.8c0.1,0.5-0.3,0.9-0.8,1c-1.2,0.1-2.4,0.7-3.1,1.7c-0.8,1-1.1,2.2-1,3.4c0.1,0.5-0.3,0.9-0.8,1
				C162.5,49.9,162.4,49.9,162.3,49.9z"/>
			<path class="st6" d="M168.7,47.1c-0.9-0.3-1.9-0.2-2.9,0.1c-2.5,0.8-5.1,0.8-7.6,0c-1-0.3-1.9-0.4-2.9-0.1
				c-3.8,1-5.6,6.5-4.1,12.2s5.8,9.6,9.6,8.6c0,0,0,0,0,0c0.7-0.2,1.5-0.2,2.2,0c0,0,0,0,0,0c3.8,1,8.1-2.8,9.6-8.6
				C174.3,53.6,172.5,48.1,168.7,47.1z"/>
			<path class="st7" d="M172.8,59.3c-1.5,5.8-5.9,9.6-9.6,8.6h0c-0.7-0.2-1.5-0.2-2.2,0h0c-1.4,0.4-2.9,0.1-4.3-0.8
				c7.4-2.9,13-10.1,14.2-19C173.1,50.3,174,54.7,172.8,59.3z"/>
		</g>
	</g>
</g>
<g>
	
		<image style="overflow:visible;opacity:2.000000e-02;" width="54" height="59" xlink:href="46EB06DE.png"  transform="matrix(1 0 0 1 445.6324 134.7861)">
	</image>
	<g>
		<g>
			<path class="st4" d="M466,150.2c-4,0.4-6.9-2.6-6.6-6.6C463.4,143.3,466.3,146.2,466,150.2z"/>
			<path class="st5" d="M466.1,153c-0.3-0.1-0.6-0.4-0.7-0.7c-0.2-1.7,0.3-3.4,1.4-4.7c1.1-1.3,2.6-2.2,4.3-2.4
				c0.5-0.1,0.9,0.3,1,0.8c0.1,0.5-0.3,0.9-0.8,1c-1.2,0.1-2.4,0.7-3.1,1.7c-0.8,1-1.1,2.2-1,3.4c0.1,0.5-0.3,0.9-0.8,1
				C466.3,153,466.2,153,466.1,153z"/>
			<path class="st6" d="M472.6,150.2c-0.9-0.3-1.9-0.2-2.9,0.1c-2.5,0.8-5.1,0.8-7.6,0c-1-0.3-1.9-0.4-2.9-0.1
				c-3.8,1-5.6,6.5-4.1,12.2c1.5,5.8,5.8,9.6,9.6,8.6c0,0,0,0,0,0c0.7-0.2,1.5-0.2,2.2,0c0,0,0,0,0,0c3.8,1,8.1-2.8,9.6-8.6
				C478.2,156.7,476.4,151.2,472.6,150.2z"/>
			<path class="st7" d="M476.7,162.4c-1.5,5.8-5.9,9.6-9.6,8.6h0c-0.7-0.2-1.5-0.2-2.2,0h0c-1.4,0.4-2.9,0.1-4.3-0.8
				c7.4-2.9,13-10.1,14.2-19C477,153.4,477.9,157.9,476.7,162.4z"/>
		</g>
	</g>
</g>
<g>
	
		<image style="overflow:visible;opacity:2.000000e-02;" width="54" height="58" xlink:href="46EB06D9.png"  transform="matrix(1 0 0 1 44.533 187.3776)">
	</image>
	<g>
		<g>
			<path class="st4" d="M64.5,202.2c-4,0.4-6.9-2.6-6.6-6.6C61.9,195.3,64.8,198.2,64.5,202.2z"/>
			<path class="st5" d="M64.6,204.9c-0.3-0.1-0.6-0.4-0.7-0.7c-0.2-1.7,0.3-3.4,1.4-4.7c1.1-1.3,2.6-2.2,4.3-2.4
				c0.5-0.1,0.9,0.3,1,0.8c0.1,0.5-0.3,0.9-0.8,1c-1.2,0.1-2.4,0.7-3.1,1.7s-1.1,2.2-1,3.4c0.1,0.5-0.3,0.9-0.8,1
				C64.8,205,64.7,205,64.6,204.9z"/>
			<path class="st6" d="M71.1,202.2c-0.9-0.3-1.9-0.2-2.9,0.1c-2.5,0.8-5.1,0.8-7.6,0c-1-0.3-1.9-0.4-2.9-0.1
				c-3.8,1-5.6,6.5-4.1,12.2c1.5,5.8,5.8,9.6,9.6,8.6c0,0,0,0,0,0c0.7-0.2,1.5-0.2,2.2,0c0,0,0,0,0,0c3.8,1,8.1-2.8,9.6-8.6
				C76.7,208.7,74.9,203.2,71.1,202.2z"/>
			<path class="st7" d="M75.2,214.4c-1.5,5.8-5.9,9.6-9.6,8.6h0c-0.7-0.2-1.5-0.2-2.2,0h0c-1.4,0.4-2.9,0.1-4.3-0.8
				c7.4-2.9,13-10.1,14.2-19C75.5,205.4,76.4,209.8,75.2,214.4z"/>
		</g>
	</g>
</g>
<g>
	
		<image style="overflow:visible;opacity:2.000000e-02;" width="54" height="60" xlink:href="46EB06DB.png"  transform="matrix(1 0 0 1 268.533 93.3776)">
	</image>
	<g>
		<g>
			<path class="st4" d="M291.7,109.8c-3.9-1-5.7-4.7-4.1-8.3C291.5,102.4,293.3,106.1,291.7,109.8z"/>
			<path class="st5" d="M290.9,112.5c-0.3-0.2-0.5-0.6-0.4-0.9c0.4-1.7,1.4-3.1,2.8-4c1.5-0.9,3.2-1.2,4.8-0.8
				c0.5,0.1,0.8,0.6,0.7,1c-0.1,0.5-0.6,0.8-1,0.7c-1.2-0.3-2.5-0.1-3.5,0.6c-1.1,0.7-1.8,1.7-2.1,2.9c-0.1,0.5-0.6,0.8-1,0.7
				C291.1,112.6,291,112.5,290.9,112.5z"/>
			<path class="st6" d="M297.9,111.9c-0.8-0.5-1.8-0.8-2.8-0.8c-2.6-0.1-5.1-0.9-7.2-2.5c-0.8-0.6-1.7-1-2.7-1
				c-3.9-0.3-7.4,4.3-7.9,10.2s2.4,11,6.3,11.3c0,0,0,0,0,0c0.8,0.1,1.5,0.3,2.1,0.7c0,0,0,0,0,0c3.3,2.2,8.6,0,11.9-5
				C301.1,119.9,301.1,114.1,297.9,111.9z"/>
			<path class="st7" d="M297.8,124.9c-3.3,4.9-8.7,7.2-11.9,5l0,0c-0.6-0.4-1.4-0.7-2.1-0.7l0,0c-1.5-0.1-2.8-0.9-3.8-2.1
				c8-0.3,15.6-5.3,19.6-13.3C301,116.4,300.4,120.9,297.8,124.9z"/>
		</g>
	</g>
</g>
<g>
	
		<image style="overflow:visible;opacity:2.000000e-02;" width="54" height="58" xlink:href="46EB06D8.png"  transform="matrix(1 0 0 1 174.533 152.3776)">
	</image>
	<g>
		<g>
			<path class="st4" d="M194.6,167.1c-4,0.4-6.9-2.6-6.6-6.6C192,160.2,194.9,163.2,194.6,167.1z"/>
			<path class="st5" d="M194.7,169.9c-0.3-0.1-0.6-0.4-0.7-0.7c-0.2-1.7,0.3-3.4,1.4-4.7c1.1-1.3,2.6-2.2,4.3-2.4
				c0.5-0.1,0.9,0.3,1,0.8c0.1,0.5-0.3,0.9-0.8,1c-1.2,0.1-2.4,0.7-3.1,1.7c-0.8,1-1.1,2.2-1,3.4c0.1,0.5-0.3,0.9-0.8,1
				C194.9,169.9,194.8,169.9,194.7,169.9z"/>
			<path class="st6" d="M201.2,167.1c-0.9-0.3-1.9-0.2-2.9,0.1c-2.5,0.8-5.1,0.8-7.6,0c-1-0.3-1.9-0.4-2.9-0.1
				c-3.8,1-5.6,6.5-4.1,12.2c1.5,5.8,5.8,9.6,9.6,8.6c0,0,0,0,0,0c0.7-0.2,1.5-0.2,2.2,0c0,0,0,0,0,0c3.8,1,8.1-2.8,9.6-8.6
				C206.8,173.6,205,168.1,201.2,167.1z"/>
			<path class="st7" d="M205.3,179.4c-1.5,5.8-5.9,9.6-9.6,8.6h0c-0.7-0.2-1.5-0.2-2.2,0h0c-1.4,0.4-2.9,0.1-4.3-0.8
				c7.4-2.9,13-10.1,14.2-19C205.6,170.4,206.5,174.8,205.3,179.4z"/>
		</g>
	</g>
</g>
<g>
	
		<image style="overflow:visible;opacity:2.000000e-02;" width="53" height="59" xlink:href="46EB06E6.png"  transform="matrix(1 0 0 1 312.533 206.3776)">
	</image>
	<g>
		<g>
			<path class="st4" d="M332.2,221.8c-4,0.4-6.9-2.6-6.6-6.6C329.6,214.9,332.6,217.8,332.2,221.8z"/>
			<path class="st5" d="M332.4,224.6c-0.3-0.1-0.6-0.4-0.7-0.7c-0.2-1.7,0.3-3.4,1.4-4.7c1.1-1.3,2.6-2.2,4.3-2.4
				c0.5-0.1,0.9,0.3,1,0.8c0.1,0.5-0.3,0.9-0.8,1c-1.2,0.1-2.4,0.7-3.1,1.7c-0.8,1-1.1,2.2-1,3.4c0.1,0.5-0.3,0.9-0.8,1
				C332.6,224.6,332.5,224.6,332.4,224.6z"/>
			<path class="st6" d="M338.8,221.8c-0.9-0.3-1.9-0.2-2.9,0.1c-2.5,0.8-5.1,0.8-7.6,0c-1-0.3-1.9-0.4-2.9-0.1
				c-3.8,1-5.6,6.5-4.1,12.2c1.5,5.8,5.8,9.6,9.6,8.6c0,0,0,0,0,0c0.7-0.2,1.5-0.2,2.2,0c0,0,0,0,0,0c3.8,1,8.1-2.8,9.6-8.6
				C344.4,228.3,342.6,222.8,338.8,221.8z"/>
			<path class="st7" d="M342.9,234c-1.5,5.8-5.9,9.6-9.6,8.6h0c-0.7-0.2-1.5-0.2-2.2,0h0c-1.4,0.4-2.9,0.1-4.3-0.8
				c7.4-2.9,13-10.1,14.2-19C343.2,225,344.1,229.4,342.9,234z"/>
		</g>
	</g>
</g>
<g>
	
		<image style="overflow:visible;opacity:2.000000e-02;" width="54" height="58" xlink:href="46EB06E9.png"  transform="matrix(1 0 0 1 136.533 262.3776)">
	</image>
	<g>
		<g>
			<path class="st4" d="M156.7,277c-4,0.4-6.9-2.6-6.6-6.6C154.1,270.1,157,273,156.7,277z"/>
			<path class="st5" d="M156.8,279.8c-0.3-0.1-0.6-0.4-0.7-0.7c-0.2-1.7,0.3-3.4,1.4-4.7c1.1-1.3,2.6-2.2,4.3-2.4
				c0.5-0.1,0.9,0.3,1,0.8c0.1,0.5-0.3,0.9-0.8,1c-1.2,0.1-2.4,0.7-3.1,1.7c-0.8,1-1.1,2.2-1,3.4c0.1,0.5-0.3,0.9-0.8,1
				C157,279.8,156.9,279.8,156.8,279.8z"/>
			<path class="st6" d="M163.3,277c-0.9-0.3-1.9-0.2-2.9,0.1c-2.5,0.8-5.1,0.8-7.6,0c-1-0.3-1.9-0.4-2.9-0.1
				c-3.8,1-5.6,6.5-4.1,12.2s5.8,9.6,9.6,8.6c0,0,0,0,0,0c0.7-0.2,1.5-0.2,2.2,0c0,0,0,0,0,0c3.8,1,8.1-2.8,9.6-8.6
				C168.9,283.5,167.1,278,163.3,277z"/>
			<path class="st7" d="M167.4,289.3c-1.5,5.8-5.9,9.6-9.6,8.6h0c-0.7-0.2-1.5-0.2-2.2,0h0c-1.4,0.4-2.9,0.1-4.3-0.8
				c7.4-2.9,13-10.1,14.2-19C167.7,280.2,168.6,284.7,167.4,289.3z"/>
		</g>
	</g>
</g>
<g>
	
		<image style="overflow:visible;opacity:2.000000e-02;" width="54" height="58" xlink:href="46EB06EA.png"  transform="matrix(1 0 0 1 354.218 325.5855)">
	</image>
	<g>
		<g>
			<path class="st4" d="M374,340.2c-4,0.4-6.9-2.6-6.6-6.6C371.4,333.3,374.3,336.2,374,340.2z"/>
			<path class="st5" d="M374.1,343c-0.3-0.1-0.6-0.4-0.7-0.7c-0.2-1.7,0.3-3.4,1.4-4.7c1.1-1.3,2.6-2.2,4.3-2.4
				c0.5-0.1,0.9,0.3,1,0.8c0.1,0.5-0.3,0.9-0.8,1c-1.2,0.1-2.4,0.7-3.1,1.7c-0.8,1-1.1,2.2-1,3.4c0.1,0.5-0.3,0.9-0.8,1
				C374.3,343,374.2,343,374.1,343z"/>
			<path class="st6" d="M380.6,340.2c-0.9-0.3-1.9-0.2-2.9,0.1c-2.5,0.8-5.1,0.8-7.6,0c-1-0.3-1.9-0.4-2.9-0.1
				c-3.8,1-5.6,6.5-4.1,12.2s5.8,9.6,9.6,8.6c0,0,0,0,0,0c0.7-0.2,1.5-0.2,2.2,0c0,0,0,0,0,0c3.8,1,8.1-2.8,9.6-8.6
				C386.2,346.7,384.4,341.2,380.6,340.2z"/>
			<path class="st7" d="M384.7,352.4c-1.5,5.8-5.9,9.6-9.6,8.6h0c-0.7-0.2-1.5-0.2-2.2,0h0c-1.4,0.4-2.9,0.1-4.3-0.8
				c7.4-2.9,13-10.1,14.2-19C385,343.4,385.9,347.8,384.7,352.4z"/>
		</g>
	</g>
</g>
<g>
	
		<image style="overflow:visible;opacity:2.000000e-02;" width="54" height="59" xlink:href="46EB06E8.png"  transform="matrix(1 0 0 1 291.7957 9.8749)">
	</image>
	<g>
		<g>
			<path class="st4" d="M311.9,25c-4,0.4-6.9-2.6-6.6-6.6C309.3,18,312.3,21,311.9,25z"/>
			<path class="st5" d="M312.1,27.7c-0.3-0.1-0.6-0.4-0.7-0.7c-0.2-1.7,0.3-3.4,1.4-4.7c1.1-1.3,2.6-2.2,4.3-2.4
				c0.5-0.1,0.9,0.3,1,0.8c0.1,0.5-0.3,0.9-0.8,1c-1.2,0.1-2.4,0.7-3.1,1.7c-0.8,1-1.1,2.2-1,3.4c0.1,0.5-0.3,0.9-0.8,1
				C312.3,27.8,312.2,27.8,312.1,27.7z"/>
			<path class="st6" d="M318.5,25c-0.9-0.3-1.9-0.2-2.9,0.1c-2.5,0.8-5.1,0.8-7.6,0c-1-0.3-1.9-0.4-2.9-0.1c-3.8,1-5.6,6.5-4.1,12.2
				s5.8,9.6,9.6,8.6c0,0,0,0,0,0c0.7-0.2,1.5-0.2,2.2,0c0,0,0,0,0,0c3.8,1,8.1-2.8,9.6-8.6C324.1,31.4,322.3,26,318.5,25z"/>
			<path class="st7" d="M322.6,37.2c-1.5,5.8-5.9,9.6-9.6,8.6h0c-0.7-0.2-1.5-0.2-2.2,0h0c-1.4,0.4-2.9,0.1-4.3-0.8
				c7.4-2.9,13-10.1,14.2-19C322.9,28.2,323.8,32.6,322.6,37.2z"/>
		</g>
	</g>
</g>
</svg>
