<svg xmlns="http://www.w3.org/2000/svg" width="143.522" height="140.32" viewBox="0 0 143.522 140.32"><defs><style>.a{fill:#eee9dc;}</style></defs><g transform="translate(0 -0.469)"><path class="a" d="M89.239,53.3c-6.533-3.771-27.185-4.6-38.567-4.629,5.712,9.847,16.757,27.318,23.29,31.089a20,20,0,0,0,13.126,2.832A13.584,13.584,0,0,0,95.213,78L86,72.487l-4.329,3.819a2.549,2.549,0,0,1-3.375-3.819l3.113-2.763-6.288-3.761-4.473,3.967a2.55,2.55,0,0,1-3.379-3.819l3.269-2.9-7.892-4.718a2.547,2.547,0,1,1,2.615-4.371l7.893,4.726.936-4.57A2.546,2.546,0,0,1,79.074,55.3l-1.293,6.322,6.365,3.8.978-4.774a2.546,2.546,0,0,1,4.988,1.018l-1.335,6.559,9.137,5.464c3.694-8.469-1.484-16.234-8.675-20.388Zm0,0" transform="translate(-34.544 -32.858)"/><path class="a" d="M311.958,36.526c5.347-5.347,11.48-25.073,14.447-36.057-10.974,2.969-30.717,9.113-36.056,14.447-5.74,5.741-8.7,14.325-3.45,21.46l7.556-7.558-2.78-5.557a2.546,2.546,0,1,1,4.554-2.279l2.019,4.043,5.215-5.207-2.781-5.561a2.547,2.547,0,1,1,4.555-2.279l2.012,4.048,6.508-6.5a2.546,2.546,0,1,1,3.6,3.6l-6.511,6.5,4.043,2.019a2.548,2.548,0,1,1-2.26,4.568l-5.574-2.8-5.208,5.208,4.044,2.019a2.549,2.549,0,1,1-2.293,4.554l-5.557-2.78-7.558,7.558c7.15,5.258,15.728,2.3,21.472-3.443Zm0,0" transform="translate(-193.723)"/><path class="a" d="M59.655,347.689a74.693,74.693,0,0,0,13.859,1.305h36.538a48.8,48.8,0,0,0,12.51-1.645l49.864-14.724a5.109,5.109,0,0,0,3.819-4.917,4.972,4.972,0,0,0-.167-1.319,5.115,5.115,0,0,0-6.232-3.62l-18.681,5.719c-.024,0-.041.025-.063.032l-15.711,4.8a10.2,10.2,0,0,1-9.374,6.256,10.012,10.012,0,0,1-2.618-.342l-30.251-8.1a2.546,2.546,0,1,1,1.319-4.916l30.246,8.1a4.913,4.913,0,0,0,1.3.169,5.115,5.115,0,0,0,4.916-3.766v-.024l.016-.03v-.036a5.056,5.056,0,0,0-3.619-6.162l-11.246-3-21.741-6.38a43.542,43.542,0,0,0-12.171-1.732H75.219a87.351,87.351,0,0,0-16.252,1.528,27.361,27.361,0,0,0-10.694,4.667l-.272.206v22.737l2.439,1.528a26.981,26.981,0,0,0,9.215,3.675Zm0,0" transform="translate(-32.723 -213.298)"/><path class="a" d="M0,343.179H10.185V297.348H0Zm0,0" transform="translate(0 -202.39)"/><path class="a" d="M210.912,175.3a2.546,2.546,0,0,1-1.569-3.87,7.5,7.5,0,0,0,1.22-4.113,7.639,7.639,0,0,0-7.639-7.639,7.08,7.08,0,0,0-2,.277,2.544,2.544,0,0,1-3.246-2.095,12.7,12.7,0,0,0-10.083-10.651,2.086,2.086,0,0,0,.053-.262v-8.511a7.59,7.59,0,0,1,2.238-5.4l7.184-7.17a2.546,2.546,0,0,0-3.6-3.6l-7.17,7.17a12.668,12.668,0,0,0-2.876,4.481,15.313,15.313,0,0,0-3.348-2.729l-8.953-5.347a2.547,2.547,0,0,0-2.612,4.373l8.953,5.346a10.555,10.555,0,0,1,5.092,8.872v2.52a1.967,1.967,0,0,0,.051.255,12.749,12.749,0,0,0-10.236,12.476,12.5,12.5,0,0,0,.362,2.984,2.547,2.547,0,0,1-3.418,2.969,12.121,12.121,0,0,0-4.583-.86A12.747,12.747,0,0,0,152,177.5h1.069c1.358,0,2.712.075,4.062.189,0-.067-.039-.123-.039-.189a7.639,7.639,0,0,1,7.639-7.639,7.056,7.056,0,0,1,2.666.489,2.546,2.546,0,0,1-1.91,4.721,2.056,2.056,0,0,0-.756-.117,2.546,2.546,0,0,0-2.546,2.546,2.516,2.516,0,0,1-.173.855c1.565.293,3.122.634,4.653,1.08l21.7,6.365,11.188,2.989A10.124,10.124,0,0,1,207,197.014l12.515-3.832a12.548,12.548,0,0,0,1.235-5.5,12.789,12.789,0,0,0-9.835-12.387Zm-33.236-13.839a7.183,7.183,0,0,1-.214-1.783,7.623,7.623,0,0,1,15.168-1.123,2.547,2.547,0,0,1-2.172,2.867,2.516,2.516,0,0,1-2.869-2.174,2.5,2.5,0,0,0-2.488-2.116,2.546,2.546,0,0,0-2.546,2.546,2.345,2.345,0,0,0,.063.558,2.546,2.546,0,1,1-4.942,1.217Zm17.439,19.254a2.547,2.547,0,0,1-2.458,1.886,2.588,2.588,0,0,1-.661-.086,2.546,2.546,0,0,1-1.8-3.127,2.546,2.546,0,0,0-1.8-3.117,2.478,2.478,0,0,0-2.949,1.4,2.547,2.547,0,1,1-4.695-1.978,7.629,7.629,0,0,1,14.366,5.017Zm7.809-10.852a2.546,2.546,0,0,0-2.546-2.546,2.546,2.546,0,0,1,0-5.092,7.639,7.639,0,0,1,7.639,7.639,2.546,2.546,0,1,1-5.092,0Zm10.185,20.37a2.546,2.546,0,0,1-2.546-2.546,2.546,2.546,0,0,0-1.925-2.459,2.546,2.546,0,1,1,1.133-4.963,7.658,7.658,0,0,1,5.884,7.422A2.546,2.546,0,0,1,213.109,190.229Zm0,0" transform="translate(-103.623 -82.54)"/></g></svg>